JapaSansOriya-CondensedExtraThin.ufo
<glyph name="L" format="2">
  <advance width="341"/>
  <unicode hex="004C"/>
  <anchor x="191" y="0" name="bottom"/>
  <anchor x="171" y="357" name="center"/>
  <anchor x="90" y="714" name="top"/>
  <anchor x="251" y="714" name="topright"/>
  <outline>
    <contour>
      <point x="78" y="0" type="line"/>
      <point x="322" y="0" type="line"/>
      <point x="322" y="25" type="line"/>
      <point x="104" y="25" type="line"/>
      <point x="104" y="714" type="line"/>
      <point x="78" y="714" type="line"/>
    </contour>
  </outline>
</glyph>
<glyph name="brokenbar" format="2">
  <advance width="378"/>
  <unicode hex="00A6"/>
  <outline>
    <contour>
      <point x="176" y="761" type="line"/>
      <point x="176" y="376" type="line"/>
      <point x="202" y="376" type="line"/>
      <point x="202" y="761" type="line"/>
    </contour>
    <contour>
      <point x="176" y="142" type="line"/>
      <point x="176" y="-244" type="line"/>
      <point x="202" y="-244" type="line"/>
      <point x="202" y="142" type="line"/>
    </contour>
  </outline>
</glyph>
<glyph name="logicalnot" format="2">
  <advance width="399"/>
  <unicode hex="00AC"/>
  <outline>
    <contour>
      <point x="358" y="363" type="line"/>
      <point x="34" y="363" type="line"/>
      <point x="34" y="338" type="line"/>
      <point x="332" y="338" type="line"/>
      <point x="332" y="120" type="line"/>
      <point x="358" y="120" type="line"/>
    </contour>
  </outline>
</glyph>
<glyph name="macron" format="2">
  <advance width="388"/>
  <unicode hex="00AF"/>
  <outline>
    <contour>
      <point x="392" y="760" type="line"/>
      <point x="392" y="786" type="line"/>
      <point x="-4" y="786" type="line"/>
      <point x="-4" y="760" type="line"/>
    </contour>
  </outline>
</glyph>
<glyph name="plusminus" format="2">
  <advance width="399"/>
  <unicode hex="00B1"/>
  <outline>
    <contour>
      <point x="36" y="1" type="line"/>
      <point x="363" y="1" type="line"/>
      <point x="363" y="27" type="line"/>
      <point x="36" y="27" type="line"/>
    </contour>
    <component base="plus.latn"/>
  </outline>
</glyph>
<glyph name="dotlessi" format="2">
  <advance width="166"/>
  <unicode hex="0131"/>
  <anchor x="83" y="0" name="bottom"/>
  <anchor x="83" y="527" name="top"/>
  <outline>
    <contour>
      <point x="96" y="0" type="line"/>
      <point x="96" y="527" type="line"/>
      <point x="71" y="527" type="line"/>
      <point x="71" y="0" type="line"/>
    </contour>
  </outline>
</glyph>
<glyph name="macronmod" format="2">
  <advance width="282"/>
  <unicode hex="02C9"/>
  <outline>
    <contour>
      <point x="242" y="641" type="line"/>
      <point x="40" y="641" type="line"/>
      <point x="40" y="617" type="line"/>
      <point x="242" y="617" type="line"/>
    </contour>
  </outline>
</glyph>
<glyph name="colontriangularmod" format="2">
  <advance width="235"/>
  <unicode hex="02D0"/>
  <outline>
    <contour>
      <point x="118" y="414" type="line"/>
      <point x="171" y="527" type="line"/>
      <point x="65" y="527" type="line"/>
    </contour>
    <contour>
      <point x="65" y="0" type="line"/>
      <point x="171" y="0" type="line"/>
      <point x="118" y="113" type="line"/>
    </contour>
  </outline>
</glyph>
<glyph name="breve" format="2">
  <advance width="279"/>
  <unicode hex="02D8"/>
  <outline>
    <contour>
      <point x="239" y="714" type="curve"/>
      <point x="216" y="714" type="line"/>
      <point x="214" y="667"/>
      <point x="187" y="634"/>
      <point x="140" y="634" type="curve" smooth="yes"/>
      <point x="93" y="634"/>
      <point x="65" y="665"/>
      <point x="63" y="714" type="curve"/>
      <point x="40" y="714" type="line"/>
      <point x="42" y="645"/>
      <point x="85" y="610"/>
      <point x="139" y="610" type="curve" smooth="yes"/>
      <point x="198" y="610"/>
      <point x="237" y="651"/>
    </contour>
  </outline>
</glyph>
<glyph name="dotabovecomb" format="2">
  <unicode hex="0307"/>
  <anchor x="0" y="658" name="_top"/>
  <outline>
    <contour>
      <point x="1" y="746" type="curve"/>
      <point x="1" y="746" type="line"/>
      <point x="14" y="746"/>
      <point x="24" y="756"/>
      <point x="24" y="769" type="curve"/>
      <point x="24" y="783"/>
      <point x="13" y="793"/>
      <point x="1" y="793" type="curve"/>
      <point x="-12" y="793"/>
      <point x="-23" y="783"/>
      <point x="-23" y="769" type="curve"/>
      <point x="-23" y="756"/>
      <point x="-13" y="746"/>
    </contour>
  </outline>
</glyph>
<glyph name="dieresiscomb" format="2">
  <unicode hex="0308"/>
  <anchor x="0" y="658" name="_top"/>
  <anchor x="54" y="658" name="_topAA"/>
  <outline>
    <contour>
      <point x="-36" y="746" type="curve"/>
      <point x="-36" y="746" type="line"/>
      <point x="-25" y="746"/>
      <point x="-18" y="755"/>
      <point x="-18" y="769" type="curve"/>
      <point x="-18" y="783"/>
      <point x="-25" y="793"/>
      <point x="-36" y="793" type="curve"/>
      <point x="-47" y="793"/>
      <point x="-54" y="783"/>
      <point x="-54" y="769" type="curve"/>
      <point x="-54" y="755"/>
      <point x="-47" y="746"/>
    </contour>
    <contour>
      <point x="36" y="746" type="curve"/>
      <point x="36" y="746" type="line"/>
      <point x="47" y="746"/>
      <point x="54" y="755"/>
      <point x="54" y="769" type="curve"/>
      <point x="54" y="783"/>
      <point x="47" y="793"/>
      <point x="36" y="793" type="curve"/>
      <point x="25" y="793"/>
      <point x="18" y="783"/>
      <point x="18" y="769" type="curve"/>
      <point x="18" y="755"/>
      <point x="25" y="746"/>
    </contour>
  </outline>
</glyph>
<glyph name="e-oriya" format="2">
  <advance width="493"/>
  <unicode hex="0B0F"/>
  <note>
eorya
</note>
  <anchor x="212" y="658" name="top"/>
  <anchor x="428" y="658" name="topright"/>
  <outline>
    <contour>
      <point x="227" y="414" type="curve"/>
      <point x="227" y="414" type="line"/>
      <point x="240" y="400" type="line"/>
      <point x="240" y="522"/>
      <point x="312" y="634"/>
      <point x="422" y="633" type="curve"/>
      <point x="415" y="645" type="line"/>
      <point x="415" y="9" type="line"/>
      <point x="437" y="12" type="line"/>
      <point x="278" y="156"/>
      <point x="141" y="318"/>
      <point x="6" y="496" type="curve"/>
      <point x="-16" y="479" type="line"/>
      <point x="111" y="313"/>
      <point x="248" y="150"/>
      <point x="412" y="0" type="curve"/>
      <point x="441" y="0" type="line"/>
      <point x="441" y="658" type="line"/>
      <point x="425" y="658" type="line" smooth="yes"/>
      <point x="298" y="658"/>
      <point x="215" y="530"/>
      <point x="215" y="416" type="curve"/>
      <point x="215" y="362"/>
      <point x="235" y="351"/>
      <point x="249" y="351" type="curve"/>
      <point x="269" y="351"/>
      <point x="279" y="370"/>
      <point x="279" y="388" type="curve"/>
      <point x="279" y="407"/>
      <point x="269" y="426"/>
      <point x="250" y="426" type="curve"/>
      <point x="242" y="426"/>
      <point x="234" y="423"/>
    </contour>
  </outline>
</glyph>
<glyph name="ai-oriya" format="2">
  <advance width="623"/>
  <unicode hex="0B10"/>
  <note>
aiorya
</note>
  <guideline x="293" y="858" angle="32.7352"/>
  <guideline x="350" y="699" angle="32.7352"/>
  <outline>
    <contour>
      <point x="493" y="328" type="curve"/>
      <point x="493" y="328" type="line"/>
      <point x="513" y="328"/>
      <point x="545" y="334"/>
      <point x="564" y="348" type="curve"/>
      <point x="564" y="374" type="line"/>
      <point x="545" y="358"/>
      <point x="513" y="352"/>
      <point x="493" y="352" type="curve"/>
      <point x="473" y="352"/>
      <point x="441" y="358"/>
      <point x="422" y="374" type="curve"/>
      <point x="422" y="348" type="line"/>
      <point x="441" y="334"/>
      <point x="473" y="328"/>
    </contour>
    <contour>
      <point x="227" y="414" type="curve"/>
      <point x="227" y="414" type="line"/>
      <point x="240" y="400" type="line"/>
      <point x="240" y="522"/>
      <point x="312" y="634"/>
      <point x="422" y="633" type="curve"/>
      <point x="415" y="645" type="line"/>
      <point x="415" y="9" type="line"/>
      <point x="437" y="12" type="line"/>
      <point x="278" y="156"/>
      <point x="141" y="318"/>
      <point x="6" y="496" type="curve"/>
      <point x="-16" y="479" type="line"/>
      <point x="111" y="313"/>
      <point x="248" y="150"/>
      <point x="412" y="0" type="curve"/>
      <point x="441" y="0" type="line"/>
      <point x="441" y="658" type="line"/>
      <point x="425" y="658" type="line" smooth="yes"/>
      <point x="298" y="658"/>
      <point x="215" y="530"/>
      <point x="215" y="416" type="curve"/>
      <point x="215" y="362"/>
      <point x="235" y="351"/>
      <point x="249" y="351" type="curve"/>
      <point x="269" y="351"/>
      <point x="279" y="370"/>
      <point x="279" y="388" type="curve"/>
      <point x="279" y="407"/>
      <point x="269" y="426"/>
      <point x="250" y="426" type="curve"/>
      <point x="242" y="426"/>
      <point x="234" y="423"/>
    </contour>
    <contour>
      <point x="571" y="693" type="line"/>
      <point x="564" y="675" type="line"/>
      <point x="606" y="710"/>
      <point x="624" y="746"/>
      <point x="624" y="785" type="curve"/>
      <point x="624" y="837"/>
      <point x="588" y="876"/>
      <point x="533" y="876" type="curve"/>
      <point x="464" y="876"/>
      <point x="386" y="816"/>
      <point x="321" y="816" type="curve"/>
      <point x="288" y="816"/>
      <point x="261" y="831"/>
      <point x="238" y="873" type="curve"/>
      <point x="218" y="862" type="line"/>
      <point x="245" y="808"/>
      <point x="282" y="791"/>
      <point x="320" y="791" type="curve"/>
      <point x="390" y="791"/>
      <point x="466" y="851"/>
      <point x="529" y="851" type="curve"/>
      <point x="577" y="851"/>
      <point x="598" y="816"/>
      <point x="598" y="781" type="curve"/>
      <point x="598" y="749"/>
      <point x="583" y="719"/>
      <point x="545" y="693" type="curve"/>
      <point x="545" y="0" type="line"/>
      <point x="571" y="0" type="line"/>
    </contour>
  </outline>
</glyph>
<glyph name="ja-oriya" format="2">
  <advance width="544"/>
  <unicode hex="0B1C"/>
  <note>
jaorya
</note>
  <anchor x="388" y="0" name="bottom"/>
  <anchor x="414" y="0" name="bottom_ra"/>
  <anchor x="272" y="-158" name="nukta"/>
  <anchor x="274" y="658" name="top"/>
  <anchor x="471" y="658" name="topright"/>
  <outline>
    <contour>
      <point x="223" y="-8" type="curve"/>
      <point x="223" y="-8" type="line"/>
      <point x="247" y="-8"/>
      <point x="273" y="-3"/>
      <point x="301" y="9" type="curve"/>
      <point x="268" y="81"/>
      <point x="263" y="145"/>
      <point x="263" y="182" type="curve"/>
      <point x="263" y="273"/>
      <point x="286" y="322"/>
      <point x="329" y="322" type="curve"/>
      <point x="368" y="322"/>
      <point x="388" y="292"/>
      <point x="388" y="238" type="curve"/>
      <point x="388" y="0" type="line"/>
      <point x="414" y="0" type="line"/>
      <point x="414" y="238" type="line" smooth="yes"/>
      <point x="414" y="304"/>
      <point x="390" y="347"/>
      <point x="330" y="347" type="curve"/>
      <point x="265" y="347"/>
      <point x="237" y="278"/>
      <point x="237" y="185" type="curve"/>
      <point x="237" y="137"/>
      <point x="247" y="68"/>
      <point x="274" y="10" type="curve"/>
      <point x="287" y="30" type="line"/>
      <point x="265" y="21"/>
      <point x="245" y="17"/>
      <point x="227" y="17" type="curve"/>
      <point x="161" y="17"/>
      <point x="118" y="69"/>
      <point x="118" y="155" type="curve"/>
      <point x="118" y="225"/>
      <point x="146" y="294"/>
      <point x="201" y="356" type="curve"/>
      <point x="183" y="372" type="line"/>
      <point x="128" y="311"/>
      <point x="92" y="236"/>
      <point x="92" y="151" type="curve"/>
      <point x="92" y="51"/>
      <point x="146" y="-8"/>
    </contour>
    <contour>
      <point x="106" y="219" type="curve"/>
      <point x="106" y="219" type="line"/>
      <point x="113" y="252" type="line"/>
      <point x="77" y="297"/>
      <point x="54" y="352"/>
      <point x="54" y="413" type="curve"/>
      <point x="54" y="539"/>
      <point x="148" y="641"/>
      <point x="272" y="641" type="curve"/>
      <point x="399" y="641"/>
      <point x="490" y="541"/>
      <point x="490" y="406" type="curve"/>
      <point x="490" y="351"/>
      <point x="475" y="291"/>
      <point x="444" y="248" type="curve"/>
      <point x="464" y="233" type="line"/>
      <point x="497" y="278"/>
      <point x="516" y="341"/>
      <point x="516" y="407" type="curve"/>
      <point x="516" y="561"/>
      <point x="412" y="666"/>
      <point x="274" y="666" type="curve"/>
      <point x="131" y="666"/>
      <point x="28" y="554"/>
      <point x="28" y="414" type="curve"/>
      <point x="28" y="339"/>
      <point x="58" y="268"/>
    </contour>
  </outline>
</glyph>
<glyph name="aiLength-oriya" format="2">
  <unicode hex="0B56"/>
  <note>
ailengthmarkorya
</note>
  <guideline x="979" y="527" angle="90"/>
  <anchor x="404" y="658" name="_topright"/>
  <outline>
    <contour>
      <point x="392" y="704" type="curve"/>
      <point x="392" y="704" type="line"/>
      <point x="414" y="694" type="line"/>
      <point x="429" y="722"/>
      <point x="438" y="752"/>
      <point x="438" y="780" type="curve"/>
      <point x="438" y="838"/>
      <point x="402" y="876"/>
      <point x="347" y="876" type="curve"/>
      <point x="277" y="876"/>
      <point x="200" y="816"/>
      <point x="135" y="816" type="curve"/>
      <point x="102" y="816"/>
      <point x="75" y="831"/>
      <point x="52" y="873" type="curve"/>
      <point x="32" y="862" type="line"/>
      <point x="59" y="808"/>
      <point x="96" y="791"/>
      <point x="134" y="791" type="curve"/>
      <point x="204" y="791"/>
      <point x="280" y="851"/>
      <point x="343" y="851" type="curve"/>
      <point x="390" y="851"/>
      <point x="412" y="816"/>
      <point x="412" y="776" type="curve"/>
      <point x="412" y="753"/>
      <point x="404" y="728"/>
    </contour>
  </outline>
</glyph>
<glyph name="auLength-oriya" format="2">
  <advance width="130"/>
  <unicode hex="0B57"/>
  <note>
aulengthmarkorya
</note>
  <outline>
    <contour>
      <point x="78" y="694" type="line"/>
      <point x="52" y="693" type="line"/>
      <point x="52" y="0" type="line"/>
      <point x="78" y="0" type="line"/>
    </contour>
    <contour>
      <point x="52" y="693" type="curve"/>
      <point x="52" y="693" type="line"/>
      <point x="72" y="676" type="line"/>
      <point x="113" y="710"/>
      <point x="131" y="746"/>
      <point x="131" y="785" type="curve"/>
      <point x="131" y="837"/>
      <point x="95" y="876"/>
      <point x="40" y="876" type="curve"/>
      <point x="-29" y="876"/>
      <point x="-107" y="816"/>
      <point x="-172" y="816" type="curve"/>
      <point x="-205" y="816"/>
      <point x="-232" y="831"/>
      <point x="-255" y="873" type="curve"/>
      <point x="-275" y="862" type="line"/>
      <point x="-248" y="808"/>
      <point x="-211" y="791"/>
      <point x="-173" y="791" type="curve"/>
      <point x="-103" y="791"/>
      <point x="-27" y="851"/>
      <point x="36" y="851" type="curve"/>
      <point x="84" y="851"/>
      <point x="105" y="816"/>
      <point x="105" y="781" type="curve"/>
      <point x="105" y="749"/>
      <point x="90" y="719"/>
    </contour>
  </outline>
</glyph>
<glyph name="figuredash" format="2">
  <advance width="380"/>
  <unicode hex="2012"/>
  <outline>
    <contour>
      <point x="40" y="347" type="line"/>
      <point x="340" y="347" type="line"/>
      <point x="340" y="372" type="line"/>
      <point x="40" y="372" type="line"/>
    </contour>
  </outline>
</glyph>
<glyph name="dagger" format="2">
  <advance width="412"/>
  <unicode hex="2020"/>
  <outline>
    <contour>
      <point x="353" y="531" type="line"/>
      <point x="353" y="558" type="line"/>
      <point x="217" y="552" type="line"/>
      <point x="225" y="760" type="line"/>
      <point x="189" y="760" type="line"/>
      <point x="195" y="552" type="line"/>
      <point x="60" y="558" type="line"/>
      <point x="60" y="531" type="line"/>
      <point x="195" y="532" type="line"/>
      <point x="189" y="0" type="line"/>
      <point x="225" y="0" type="line"/>
      <point x="217" y="532" type="line"/>
    </contour>
  </outline>
</glyph>
<glyph name="fraction" format="2">
  <advance width="87"/>
  <unicode hex="2044"/>
  <outline>
    <contour>
      <point x="233" y="714" type="line"/>
      <point x="205" y="714" type="line"/>
      <point x="-146" y="0" type="line"/>
      <point x="-118" y="0" type="line"/>
    </contour>
  </outline>
</glyph>
<glyph name="hyphensuperior" format="2">
  <advance width="307"/>
  <unicode hex="207B"/>
  <outline>
    <contour>
      <point x="35" y="593" type="line"/>
      <point x="272" y="593" type="line"/>
      <point x="272" y="618" type="line"/>
      <point x="35" y="618" type="line"/>
    </contour>
  </outline>
</glyph>
<glyph name="halfbracketrighttop" format="2">
  <advance width="303"/>
  <unicode hex="2E23"/>
  <outline>
    <contour>
      <point x="193" y="280" type="line"/>
      <point x="219" y="280" type="line"/>
      <point x="219" y="714" type="line"/>
      <point x="36" y="714" type="line"/>
      <point x="36" y="689" type="line"/>
      <point x="193" y="689" type="line"/>
    </contour>
  </outline>
</glyph>
<glyph name="halfbracketleftbottom" format="2">
  <advance width="303"/>
  <unicode hex="2E24"/>
  <outline>
    <contour>
      <point x="84" y="-157" type="line"/>
      <point x="267" y="-157" type="line"/>
      <point x="267" y="-132" type="line"/>
      <point x="110" y="-132" type="line"/>
      <point x="110" y="277" type="line"/>
      <point x="84" y="277" type="line"/>
    </contour>
  </outline>
</glyph>
<glyph name="halfbracketrightbottom" format="2">
  <advance width="303"/>
  <unicode hex="2E25"/>
  <outline>
    <contour>
      <point x="193" y="277" type="line"/>
      <point x="193" y="-132" type="line"/>
      <point x="36" y="-132" type="line"/>
      <point x="36" y="-157" type="line"/>
      <point x="219" y="-157" type="line"/>
      <point x="219" y="277" type="line"/>
    </contour>
  </outline>
</glyph>
<glyph name="saltillo" format="2">
  <advance width="163"/>
  <unicode hex="A78C"/>
  <outline>
    <contour>
      <point x="71" y="379" type="line"/>
      <point x="94" y="379" type="line"/>
      <point x="99" y="714" type="line"/>
      <point x="66" y="714" type="line"/>
    </contour>
  </outline>
</glyph>
<glyph name="aiLength-oriya.stem" format="2">
  <note>
ailengthmarkorya
</note>
  <anchor x="364" y="658" name="_topright"/>
  <outline>
    <contour>
      <point x="351" y="658" type="curve"/>
      <point x="351" y="658" type="line"/>
      <point x="376" y="646" type="line"/>
      <point x="416" y="683"/>
      <point x="438" y="734"/>
      <point x="438" y="780" type="curve"/>
      <point x="438" y="838"/>
      <point x="402" y="876"/>
      <point x="347" y="876" type="curve"/>
      <point x="277" y="876"/>
      <point x="200" y="816"/>
      <point x="135" y="816" type="curve"/>
      <point x="102" y="816"/>
      <point x="75" y="831"/>
      <point x="52" y="873" type="curve"/>
      <point x="32" y="862" type="line"/>
      <point x="59" y="808"/>
      <point x="96" y="791"/>
      <point x="134" y="791" type="curve"/>
      <point x="204" y="791"/>
      <point x="280" y="851"/>
      <point x="343" y="851" type="curve"/>
      <point x="390" y="851"/>
      <point x="412" y="816"/>
      <point x="412" y="776" type="curve"/>
      <point x="412" y="735"/>
      <point x="390" y="687"/>
    </contour>
  </outline>
</glyph>
<glyph name="aiLength-oriya.umbrella" format="2">
  <note>
ailengthmarkorya
</note>
  <guideline x="979" y="527" angle="90"/>
  <anchor x="385" y="658" name="_topright"/>
  <outline>
    <contour>
      <point x="328" y="608" type="curve"/>
      <point x="328" y="608" type="line"/>
      <point x="351" y="595" type="line"/>
      <point x="395" y="650"/>
      <point x="419" y="715"/>
      <point x="419" y="769" type="curve"/>
      <point x="419" y="830"/>
      <point x="388" y="876"/>
      <point x="327" y="876" type="curve"/>
      <point x="258" y="876"/>
      <point x="180" y="816"/>
      <point x="115" y="816" type="curve"/>
      <point x="82" y="816"/>
      <point x="55" y="831"/>
      <point x="32" y="873" type="curve"/>
      <point x="12" y="862" type="line"/>
      <point x="39" y="808"/>
      <point x="76" y="791"/>
      <point x="114" y="791" type="curve"/>
      <point x="184" y="791"/>
      <point x="261" y="851"/>
      <point x="322" y="851" type="curve"/>
      <point x="369" y="851"/>
      <point x="393" y="816"/>
      <point x="393" y="766" type="curve"/>
      <point x="393" y="718"/>
      <point x="370" y="657"/>
    </contour>
  </outline>
</glyph>
<glyph name="ba-oriya.below" format="2">
  <note>
basubscriptorya
</note>
  <guideline x="147" y="155" angle="90"/>
  <anchor x="182" y="110" name="_bottom"/>
  <outline>
    <contour>
      <point x="72" y="-137" type="curve"/>
      <point x="72" y="-137" type="line"/>
      <point x="75" y="-107" type="line"/>
      <point x="54" y="-83"/>
      <point x="43" y="-52"/>
      <point x="43" y="-21" type="curve"/>
      <point x="43" y="47"/>
      <point x="86" y="93"/>
      <point x="147" y="93" type="curve"/>
      <point x="207" y="93"/>
      <point x="250" y="47"/>
      <point x="250" y="-22" type="curve"/>
      <point x="250" y="-50"/>
      <point x="243" y="-78"/>
      <point x="226" y="-103" type="curve"/>
      <point x="246" y="-117" type="line"/>
      <point x="267" y="-89"/>
      <point x="276" y="-55"/>
      <point x="276" y="-23" type="curve"/>
      <point x="276" y="60"/>
      <point x="223" y="116"/>
      <point x="148" y="116" type="curve"/>
      <point x="72" y="116"/>
      <point x="18" y="62"/>
      <point x="18" y="-20" type="curve"/>
      <point x="18" y="-63"/>
      <point x="34" y="-104"/>
    </contour>
    <contour>
      <point x="136" y="-216" type="curve"/>
      <point x="136" y="-216" type="line"/>
      <point x="179" y="-216"/>
      <point x="210" y="-177"/>
      <point x="210" y="-124" type="curve"/>
      <point x="210" y="-74"/>
      <point x="182" y="-38"/>
      <point x="139" y="-38" type="curve"/>
      <point x="96" y="-38"/>
      <point x="67" y="-73"/>
      <point x="67" y="-127" type="curve"/>
      <point x="67" y="-181"/>
      <point x="95" y="-216"/>
    </contour>
    <contour>
      <point x="139" y="-193" type="curve"/>
      <point x="139" y="-193" type="line"/>
      <point x="111" y="-193"/>
      <point x="92" y="-166"/>
      <point x="92" y="-127" type="curve"/>
      <point x="92" y="-88"/>
      <point x="111" y="-61"/>
      <point x="139" y="-61" type="curve"/>
      <point x="167" y="-61"/>
      <point x="184" y="-88"/>
      <point x="184" y="-127" type="curve"/>
      <point x="184" y="-166"/>
      <point x="167" y="-193"/>
    </contour>
    <contour>
      <point x="184" y="-127" type="line"/>
      <point x="184" y="-244" type="line"/>
      <point x="210" y="-244" type="line"/>
      <point x="210" y="-127" type="line"/>
    </contour>
  </outline>
</glyph>
<glyph name="baja-oriya" format="2">
  <advance width="471"/>
  <guideline x="107" y="142" angle="90"/>
  <guideline x="333" y="177" angle="90"/>
  <guideline x="393" y="173" angle="90"/>
  <anchor x="265" y="-338" name="nukta"/>
  <anchor x="234" y="658" name="top"/>
  <anchor x="398" y="658" name="topright"/>
  <outline>
    <contour>
      <point x="222" y="-248" type="curve"/>
      <point x="222" y="-248" type="line"/>
      <point x="243" y="-248"/>
      <point x="266" y="-243"/>
      <point x="291" y="-233" type="curve"/>
      <point x="275" y="-189"/>
      <point x="260" y="-142"/>
      <point x="260" y="-91" type="curve"/>
      <point x="260" y="-35"/>
      <point x="279" y="14"/>
      <point x="319" y="14" type="curve"/>
      <point x="352" y="14"/>
      <point x="367" y="-13"/>
      <point x="367" y="-49" type="curve"/>
      <point x="367" y="-244" type="line"/>
      <point x="393" y="-244" type="line"/>
      <point x="393" y="-49" type="line" smooth="yes"/>
      <point x="393" y="-37"/>
      <point x="391" y="36"/>
      <point x="322" y="36" type="curve"/>
      <point x="260" y="36"/>
      <point x="235" y="-21"/>
      <point x="235" y="-93" type="curve"/>
      <point x="235" y="-146"/>
      <point x="248" y="-184"/>
      <point x="265" y="-233" type="curve"/>
      <point x="274" y="-214" type="line"/>
      <point x="257" y="-221"/>
      <point x="241" y="-225"/>
      <point x="224" y="-225" type="curve"/>
      <point x="169" y="-225"/>
      <point x="137" y="-181"/>
      <point x="137" y="-117" type="curve"/>
      <point x="137" y="-66"/>
      <point x="162" y="-20"/>
      <point x="193" y="19" type="curve"/>
      <point x="173" y="33" type="line"/>
      <point x="136" y="-12"/>
      <point x="112" y="-61"/>
      <point x="112" y="-119" type="curve"/>
      <point x="112" y="-201"/>
      <point x="159" y="-248"/>
    </contour>
    <contour>
      <point x="307" y="256" type="line"/>
      <point x="307" y="96" type="line"/>
      <point x="333" y="96" type="line"/>
      <point x="333" y="282" type="line"/>
    </contour>
    <contour>
      <point x="218" y="140" type="curve"/>
      <point x="218" y="140" type="line"/>
      <point x="287" y="140"/>
      <point x="333" y="197"/>
      <point x="333" y="282" type="curve"/>
      <point x="333" y="367"/>
      <point x="287" y="423"/>
      <point x="218" y="423" type="curve"/>
      <point x="148" y="423"/>
      <point x="102" y="367"/>
      <point x="102" y="282" type="curve"/>
      <point x="102" y="197"/>
      <point x="148" y="140"/>
    </contour>
    <contour>
      <point x="218" y="165" type="curve"/>
      <point x="218" y="165" type="line"/>
      <point x="164" y="165"/>
      <point x="128" y="212"/>
      <point x="128" y="282" type="curve"/>
      <point x="128" y="352"/>
      <point x="164" y="398"/>
      <point x="218" y="398" type="curve"/>
      <point x="271" y="398"/>
      <point x="307" y="352"/>
      <point x="307" y="282" type="curve"/>
      <point x="307" y="212"/>
      <point x="271" y="165"/>
    </contour>
    <contour>
      <point x="116" y="272" type="curve"/>
      <point x="116" y="272" type="line"/>
      <point x="124" y="295" type="line"/>
      <point x="81" y="333"/>
      <point x="54" y="388"/>
      <point x="54" y="453" type="curve"/>
      <point x="54" y="578"/>
      <point x="144" y="641"/>
      <point x="234" y="641" type="curve"/>
      <point x="325" y="641"/>
      <point x="417" y="576"/>
      <point x="417" y="446" type="curve"/>
      <point x="417" y="395"/>
      <point x="404" y="348"/>
      <point x="375" y="310" type="curve"/>
      <point x="395" y="294" type="line"/>
      <point x="425" y="334"/>
      <point x="443" y="386"/>
      <point x="443" y="446" type="curve"/>
      <point x="443" y="593"/>
      <point x="338" y="666"/>
      <point x="234" y="666" type="curve"/>
      <point x="130" y="666"/>
      <point x="28" y="594"/>
      <point x="28" y="456" type="curve"/>
      <point x="28" y="377"/>
      <point x="61" y="311"/>
    </contour>
  </outline>
</glyph>
<glyph name="ca-oriya.base" format="2">
  <advance width="482"/>
  <anchor x="331" y="110" name="bottom"/>
  <anchor x="239" y="658" name="top"/>
  <anchor x="409" y="658" name="topright"/>
  <outline>
    <contour>
      <point x="111" y="274" type="curve"/>
      <point x="111" y="274" type="line"/>
      <point x="118" y="297" type="line"/>
      <point x="80" y="334"/>
      <point x="54" y="397"/>
      <point x="54" y="454" type="curve"/>
      <point x="54" y="566"/>
      <point x="128" y="641"/>
      <point x="240" y="641" type="curve"/>
      <point x="353" y="641"/>
      <point x="428" y="563"/>
      <point x="428" y="446" type="curve"/>
      <point x="428" y="398"/>
      <point x="412" y="345"/>
      <point x="386" y="310" type="curve"/>
      <point x="406" y="294" type="line"/>
      <point x="435" y="332"/>
      <point x="454" y="391"/>
      <point x="454" y="444" type="curve"/>
      <point x="454" y="577"/>
      <point x="368" y="666"/>
      <point x="239" y="666" type="curve"/>
      <point x="112" y="666"/>
      <point x="28" y="582"/>
      <point x="28" y="455" type="curve"/>
      <point x="28" y="384"/>
      <point x="61" y="312"/>
    </contour>
    <contour>
      <point x="219" y="90" type="curve"/>
      <point x="219" y="90" type="line"/>
      <point x="294" y="90"/>
      <point x="344" y="150"/>
      <point x="344" y="241" type="curve"/>
      <point x="344" y="332"/>
      <point x="294" y="393"/>
      <point x="219" y="393" type="curve"/>
      <point x="144" y="393"/>
      <point x="94" y="332"/>
      <point x="94" y="241" type="curve"/>
      <point x="94" y="150"/>
      <point x="144" y="90"/>
    </contour>
    <contour>
      <point x="219" y="115" type="curve"/>
      <point x="219" y="115" type="line"/>
      <point x="160" y="115"/>
      <point x="120" y="165"/>
      <point x="120" y="242" type="curve"/>
      <point x="120" y="319"/>
      <point x="160" y="368"/>
      <point x="219" y="368" type="curve"/>
      <point x="278" y="368"/>
      <point x="318" y="318"/>
      <point x="318" y="241" type="curve"/>
      <point x="318" y="164"/>
      <point x="278" y="115"/>
    </contour>
  </outline>
</glyph>
<glyph name="ca-oriya.below" format="2">
  <note>
casubscriptorya
</note>
  <guideline x="145" y="159" angle="90"/>
  <anchor x="180" y="110" name="_bottom"/>
  <outline>
    <contour>
      <point x="63" y="-128" type="curve"/>
      <point x="63" y="-128" type="line"/>
      <point x="75" y="-107" type="line"/>
      <point x="54" y="-83"/>
      <point x="43" y="-52"/>
      <point x="43" y="-21" type="curve"/>
      <point x="43" y="36"/>
      <point x="74" y="93"/>
      <point x="144" y="93" type="curve"/>
      <point x="214" y="93"/>
      <point x="245" y="36"/>
      <point x="245" y="-22" type="curve"/>
      <point x="245" y="-48"/>
      <point x="239" y="-75"/>
      <point x="224" y="-98" type="curve"/>
      <point x="244" y="-112" type="line"/>
      <point x="263" y="-85"/>
      <point x="271" y="-53"/>
      <point x="271" y="-23" type="curve"/>
      <point x="271" y="49"/>
      <point x="231" y="116"/>
      <point x="145" y="116" type="curve"/>
      <point x="58" y="116"/>
      <point x="18" y="49"/>
      <point x="18" y="-20" type="curve"/>
      <point x="18" y="-59"/>
      <point x="32" y="-99"/>
    </contour>
    <contour>
      <point x="138" y="-248" type="curve"/>
      <point x="138" y="-248" type="line"/>
      <point x="185" y="-248"/>
      <point x="217" y="-210"/>
      <point x="217" y="-152" type="curve"/>
      <point x="217" y="-94"/>
      <point x="185" y="-56"/>
      <point x="138" y="-56" type="curve"/>
      <point x="90" y="-56"/>
      <point x="59" y="-94"/>
      <point x="59" y="-152" type="curve"/>
      <point x="59" y="-209"/>
      <point x="89" y="-248"/>
    </contour>
    <contour>
      <point x="138" y="-225" type="curve"/>
      <point x="138" y="-225" type="line"/>
      <point x="105" y="-225"/>
      <point x="84" y="-195"/>
      <point x="84" y="-151" type="curve"/>
      <point x="84" y="-108"/>
      <point x="105" y="-79"/>
      <point x="138" y="-79" type="curve"/>
      <point x="171" y="-79"/>
      <point x="192" y="-109"/>
      <point x="192" y="-152" type="curve"/>
      <point x="192" y="-195"/>
      <point x="171" y="-225"/>
    </contour>
  </outline>
</glyph>
<glyph name="darauMatra-oriya" format="2">
  <advance width="505"/>
  <anchor x="250" y="658" name="top"/>
  <anchor x="432" y="658" name="topright"/>
  <outline>
    <contour>
      <point x="226" y="160" type="curve"/>
      <point x="226" y="160" type="line"/>
      <point x="266" y="160"/>
      <point x="310" y="178"/>
      <point x="338" y="219" type="curve"/>
      <point x="323" y="238" type="line"/>
      <point x="301" y="201"/>
      <point x="263" y="185"/>
      <point x="228" y="185" type="curve"/>
      <point x="180" y="185"/>
      <point x="137" y="216"/>
      <point x="137" y="270" type="curve"/>
      <point x="137" y="313"/>
      <point x="162" y="365"/>
      <point x="208" y="400" type="curve"/>
      <point x="194" y="418" type="line"/>
      <point x="143" y="382"/>
      <point x="111" y="323"/>
      <point x="111" y="271" type="curve"/>
      <point x="111" y="202"/>
      <point x="167" y="160"/>
    </contour>
    <contour>
      <point x="121" y="264" type="curve"/>
      <point x="121" y="264" type="line"/>
      <point x="126" y="293" type="line"/>
      <point x="81" y="326"/>
      <point x="54" y="385"/>
      <point x="54" y="453" type="curve"/>
      <point x="54" y="562"/>
      <point x="134" y="641"/>
      <point x="252" y="641" type="curve"/>
      <point x="371" y="641"/>
      <point x="451" y="560"/>
      <point x="451" y="440" type="curve"/>
      <point x="451" y="398"/>
      <point x="441" y="347"/>
      <point x="411" y="310" type="curve"/>
      <point x="429" y="295" type="line"/>
      <point x="461" y="333"/>
      <point x="477" y="388"/>
      <point x="477" y="444" type="curve"/>
      <point x="477" y="577"/>
      <point x="384" y="666"/>
      <point x="250" y="666" type="curve"/>
      <point x="120" y="666"/>
      <point x="28" y="582"/>
      <point x="28" y="446" type="curve"/>
      <point x="28" y="370"/>
      <point x="57" y="312"/>
    </contour>
    <contour>
      <point x="343" y="370" type="line"/>
      <point x="317" y="370" type="line"/>
      <point x="317" y="25" type="line"/>
      <point x="39" y="25" type="line"/>
      <point x="39" y="0" type="line"/>
      <point x="343" y="0" type="line"/>
    </contour>
    <contour>
      <point x="141" y="-203" type="curve"/>
      <point x="141" y="-203" type="line"/>
      <point x="201" y="-203"/>
      <point x="273" y="-149"/>
      <point x="273" y="-18" type="curve"/>
      <point x="273" y="8" type="line"/>
      <point x="247" y="8" type="line"/>
      <point x="247" y="-18" type="line" smooth="yes"/>
      <point x="247" y="-133"/>
      <point x="189" y="-178"/>
      <point x="142" y="-178" type="curve"/>
      <point x="107" y="-178"/>
      <point x="90" y="-154"/>
      <point x="90" y="-129" type="curve"/>
      <point x="90" y="-103"/>
      <point x="109" y="-79"/>
      <point x="144" y="-79" type="curve"/>
      <point x="222" y="-79"/>
      <point x="256" y="-203"/>
      <point x="358" y="-203" type="curve"/>
      <point x="373" y="-203"/>
      <point x="387" y="-200"/>
      <point x="399" y="-195" type="curve"/>
      <point x="392" y="-172" type="line"/>
      <point x="380" y="-176"/>
      <point x="367" y="-178"/>
      <point x="356" y="-178" type="curve"/>
      <point x="270" y="-178"/>
      <point x="235" y="-54"/>
      <point x="141" y="-54" type="curve"/>
      <point x="90" y="-54"/>
      <point x="64" y="-91"/>
      <point x="64" y="-128" type="curve"/>
      <point x="64" y="-166"/>
      <point x="91" y="-203"/>
    </contour>
  </outline>
</glyph>
<glyph name="dava-oriya" format="2">
  <advance width="544"/>
  <anchor x="348" y="0" name="bottom"/>
  <anchor x="444" y="0" name="bottom_ra"/>
  <anchor x="204" y="20" name="curve"/>
  <anchor x="292" y="-294" name="nukta"/>
  <anchor x="273" y="658" name="top"/>
  <anchor x="471" y="658" name="topright"/>
  <anchor x="348" y="19" name="vertical"/>
  <outline>
    <contour>
      <point x="254" y="75" type="curve"/>
      <point x="254" y="75" type="line"/>
      <point x="296" y="75"/>
      <point x="341" y="97"/>
      <point x="369" y="144" type="curve"/>
      <point x="354" y="163" type="line"/>
      <point x="331" y="121"/>
      <point x="293" y="100"/>
      <point x="255" y="100" type="curve"/>
      <point x="206" y="100"/>
      <point x="161" y="135"/>
      <point x="161" y="201" type="curve"/>
      <point x="161" y="253"/>
      <point x="188" y="314"/>
      <point x="238" y="355" type="curve"/>
      <point x="222" y="374" type="line"/>
      <point x="166" y="329"/>
      <point x="135" y="261"/>
      <point x="135" y="202" type="curve"/>
      <point x="135" y="121"/>
      <point x="193" y="75"/>
    </contour>
    <contour>
      <point x="348" y="118" type="line"/>
      <point x="348" y="0" type="line"/>
      <point x="374" y="0" type="line"/>
      <point x="374" y="320" type="line"/>
      <point x="348" y="320" type="line"/>
      <point x="348" y="130" type="line"/>
    </contour>
    <contour>
      <point x="154" y="183" type="curve"/>
      <point x="154" y="183" type="line"/>
      <point x="152" y="216" type="line"/>
      <point x="75" y="266"/>
      <point x="54" y="358"/>
      <point x="54" y="409" type="curve"/>
      <point x="54" y="541"/>
      <point x="148" y="641"/>
      <point x="273" y="641" type="curve"/>
      <point x="396" y="641"/>
      <point x="490" y="544"/>
      <point x="490" y="406" type="curve"/>
      <point x="490" y="351"/>
      <point x="475" y="291"/>
      <point x="444" y="248" type="curve"/>
      <point x="464" y="233" type="line"/>
      <point x="497" y="278"/>
      <point x="516" y="341"/>
      <point x="516" y="407" type="curve"/>
      <point x="516" y="561"/>
      <point x="412" y="666"/>
      <point x="273" y="666" type="curve"/>
      <point x="131" y="666"/>
      <point x="28" y="556"/>
      <point x="28" y="409" type="curve"/>
      <point x="28" y="347"/>
      <point x="50" y="241"/>
    </contour>
    <contour>
      <point x="277" y="-168" type="curve"/>
      <point x="277" y="-168" type="line"/>
      <point x="311" y="-168"/>
      <point x="342" y="-154"/>
      <point x="363" y="-128" type="curve"/>
      <point x="360" y="-98" type="line"/>
      <point x="342" y="-127"/>
      <point x="311" y="-144"/>
      <point x="279" y="-144" type="curve"/>
      <point x="233" y="-144"/>
      <point x="208" y="-108"/>
      <point x="208" y="-62" type="curve"/>
      <point x="208" y="-41"/>
      <point x="214" y="-13"/>
      <point x="224" y="10" type="curve"/>
      <point x="203" y="20" type="line"/>
      <point x="190" y="-6"/>
      <point x="182" y="-38"/>
      <point x="182" y="-65" type="curve"/>
      <point x="182" y="-121"/>
      <point x="215" y="-168"/>
    </contour>
    <contour>
      <point x="348" y="-138" type="line"/>
      <point x="348" y="-244" type="line"/>
      <point x="374" y="-244" type="line"/>
      <point x="374" y="19" type="line"/>
      <point x="348" y="19" type="line"/>
      <point x="348" y="-129" type="line"/>
    </contour>
  </outline>
</glyph>
<glyph name="dha-oriya.below" format="2">
  <note>
dhasubscriptorya
</note>
  <guideline x="159" y="144" angle="90"/>
  <anchor x="159" y="110" name="_bottom"/>
  <outline>
    <contour>
      <point x="41" y="102" type="line"/>
      <point x="174" y="-103" type="line"/>
      <point x="192" y="-89" type="line"/>
      <point x="61" y="116" type="line"/>
    </contour>
    <contour>
      <point x="250" y="-179" type="line"/>
      <point x="250" y="-244" type="line"/>
      <point x="276" y="-244" type="line"/>
      <point x="276" y="112" type="line"/>
      <point x="250" y="112" type="line"/>
      <point x="250" y="-171" type="line"/>
    </contour>
    <contour>
      <point x="139" y="-248" type="curve"/>
      <point x="139" y="-248" type="line"/>
      <point x="194" y="-248"/>
      <point x="246" y="-219"/>
      <point x="271" y="-161" type="curve"/>
      <point x="258" y="-144" type="line"/>
      <point x="236" y="-196"/>
      <point x="189" y="-225"/>
      <point x="140" y="-225" type="curve"/>
      <point x="75" y="-225"/>
      <point x="43" y="-180"/>
      <point x="43" y="-132" type="curve"/>
      <point x="43" y="-86"/>
      <point x="75" y="-35"/>
      <point x="139" y="-20" type="curve"/>
      <point x="120" y="-4" type="line"/>
      <point x="53" y="-22"/>
      <point x="18" y="-80"/>
      <point x="18" y="-133" type="curve"/>
      <point x="18" y="-192"/>
      <point x="58" y="-248"/>
    </contour>
  </outline>
</glyph>
<glyph name="dhava-oriya" format="2">
  <advance width="476"/>
  <anchor x="226" y="658" name="top"/>
  <anchor x="411" y="658" name="topright"/>
  <outline>
    <contour>
      <point x="212" y="90" type="curve"/>
      <point x="212" y="90" type="line"/>
      <point x="292" y="90"/>
      <point x="369" y="122"/>
      <point x="414" y="193" type="curve"/>
      <point x="403" y="215" type="line"/>
      <point x="361" y="150"/>
      <point x="287" y="115"/>
      <point x="213" y="115" type="curve"/>
      <point x="107" y="115"/>
      <point x="54" y="188"/>
      <point x="54" y="265" type="curve"/>
      <point x="54" y="340"/>
      <point x="106" y="421"/>
      <point x="214" y="452" type="curve"/>
      <point x="206" y="476" type="line"/>
      <point x="87" y="441"/>
      <point x="28" y="349"/>
      <point x="28" y="263" type="curve"/>
      <point x="28" y="174"/>
      <point x="90" y="90"/>
    </contour>
    <contour>
      <point x="76" y="653" type="line"/>
      <point x="288" y="320" type="line"/>
      <point x="308" y="333" type="line"/>
      <point x="96" y="666" type="line"/>
    </contour>
    <contour>
      <point x="327" y="-168" type="curve"/>
      <point x="327" y="-168" type="line"/>
      <point x="361" y="-168"/>
      <point x="392" y="-154"/>
      <point x="413" y="-128" type="curve"/>
      <point x="410" y="-98" type="line"/>
      <point x="392" y="-127"/>
      <point x="361" y="-144"/>
      <point x="329" y="-144" type="curve"/>
      <point x="283" y="-144"/>
      <point x="258" y="-108"/>
      <point x="258" y="-63" type="curve"/>
      <point x="258" y="-41"/>
      <point x="264" y="-13"/>
      <point x="275" y="10" type="curve"/>
      <point x="253" y="19" type="line"/>
      <point x="240" y="-7"/>
      <point x="232" y="-39"/>
      <point x="232" y="-65" type="curve"/>
      <point x="232" y="-121"/>
      <point x="265" y="-168"/>
    </contour>
    <contour>
      <point x="398" y="-138" type="line"/>
      <point x="398" y="-244" type="line"/>
      <point x="424" y="-244" type="line"/>
      <point x="424" y="658" type="line"/>
      <point x="398" y="658" type="line"/>
      <point x="398" y="207" type="line"/>
      <point x="398" y="193" type="line"/>
      <point x="398" y="76" type="line"/>
      <point x="398" y="-129" type="line"/>
    </contour>
  </outline>
</glyph>
<glyph name="emdash.latn" format="2">
  <advance width="996"/>
  <outline>
    <contour>
      <point x="40" y="263" type="line"/>
      <point x="956" y="263" type="line"/>
      <point x="956" y="289" type="line"/>
      <point x="40" y="289" type="line"/>
    </contour>
  </outline>
</glyph>
<glyph name="gha-oriya.below" format="2">
  <note>
ghasubscriptorya
</note>
  <guideline x="155" y="147" angle="90"/>
  <anchor x="196" y="110" name="_bottom"/>
  <anchor x="266" y="-244" name="bottom"/>
  <anchor x="292" y="-244" name="bottom_ra"/>
  <anchor x="155" y="-338" name="nukta"/>
  <outline>
    <contour>
      <point x="18" y="-18" type="curve"/>
      <point x="18" y="-18" type="line"/>
      <point x="18" y="-66"/>
      <point x="36" y="-109"/>
      <point x="76" y="-138" type="curve"/>
      <point x="83" y="-114" type="line"/>
      <point x="57" y="-89"/>
      <point x="43" y="-55"/>
      <point x="43" y="-21" type="curve"/>
      <point x="43" y="52"/>
      <point x="94" y="93"/>
      <point x="150" y="93" type="curve"/>
      <point x="209" y="93"/>
      <point x="269" y="50"/>
      <point x="269" y="-37" type="curve"/>
      <point x="291" y="-37" type="line"/>
      <point x="291" y="67"/>
      <point x="219" y="116"/>
      <point x="150" y="116" type="curve"/>
      <point x="82" y="116"/>
      <point x="18" y="68"/>
    </contour>
    <contour>
      <point x="59" y="-161" type="curve"/>
      <point x="59" y="-161" type="line"/>
      <point x="59" y="-215"/>
      <point x="85" y="-248"/>
      <point x="124" y="-248" type="curve"/>
      <point x="158" y="-248"/>
      <point x="184" y="-222"/>
      <point x="184" y="-170" type="curve"/>
      <point x="172" y="-170" type="line"/>
      <point x="172" y="-222"/>
      <point x="202" y="-248"/>
      <point x="232" y="-248" type="curve"/>
      <point x="258" y="-248"/>
      <point x="284" y="-224"/>
      <point x="284" y="-176" type="curve"/>
      <point x="266" y="-176" type="line"/>
      <point x="266" y="-207"/>
      <point x="250" y="-225"/>
      <point x="233" y="-225" type="curve"/>
      <point x="212" y="-225"/>
      <point x="191" y="-204"/>
      <point x="191" y="-162" type="curve"/>
      <point x="191" y="-120" type="line"/>
      <point x="166" y="-120" type="line"/>
      <point x="166" y="-162" type="line" smooth="yes"/>
      <point x="166" y="-203"/>
      <point x="148" y="-225"/>
      <point x="124" y="-225" type="curve"/>
      <point x="95" y="-225"/>
      <point x="84" y="-193"/>
      <point x="84" y="-161" type="curve"/>
      <point x="84" y="-122"/>
      <point x="105" y="-81"/>
      <point x="145" y="-56" type="curve"/>
      <point x="133" y="-37" type="line"/>
      <point x="80" y="-68"/>
      <point x="59" y="-117"/>
    </contour>
    <contour>
      <point x="266" y="-213" type="line"/>
      <point x="266" y="-244" type="line"/>
      <point x="292" y="-244" type="line"/>
      <point x="292" y="112" type="line"/>
      <point x="266" y="112" type="line"/>
      <point x="266" y="24" type="line"/>
      <point x="266" y="16" type="line"/>
      <point x="266" y="-203" type="line"/>
    </contour>
  </outline>
</glyph>
<glyph name="ha-oriya.below" format="2">
  <note>
hasubscriptorya
</note>
  <guideline x="149" y="162" angle="90"/>
  <anchor x="184" y="110" name="_bottom"/>
  <outline>
    <contour>
      <point x="73" y="-98" type="curve"/>
      <point x="73" y="-98" type="line"/>
      <point x="77" y="-74" type="line"/>
      <point x="56" y="-58"/>
      <point x="43" y="-29"/>
      <point x="43" y="1" type="curve"/>
      <point x="43" y="60"/>
      <point x="93" y="91"/>
      <point x="145" y="91" type="curve"/>
      <point x="199" y="91"/>
      <point x="255" y="57"/>
      <point x="255" y="-12" type="curve"/>
      <point x="255" y="-39"/>
      <point x="246" y="-66"/>
      <point x="230" y="-86" type="curve"/>
      <point x="250" y="-103" type="line"/>
      <point x="269" y="-79"/>
      <point x="280" y="-45"/>
      <point x="280" y="-11" type="curve"/>
      <point x="280" y="74"/>
      <point x="211" y="116"/>
      <point x="144" y="116" type="curve"/>
      <point x="80" y="116"/>
      <point x="18" y="78"/>
      <point x="18" y="4" type="curve"/>
      <point x="18" y="-37"/>
      <point x="38" y="-79"/>
    </contour>
    <contour>
      <point x="54" y="-187" type="line"/>
      <point x="230" y="-248" type="line"/>
      <point x="238" y="-227" type="line"/>
      <point x="73" y="-170" type="line"/>
      <point x="74" y="-183" type="line"/>
      <point x="124" y="-136" type="line"/>
      <point x="103" y="-126" type="line"/>
      <point x="52" y="-173" type="line"/>
    </contour>
    <contour>
      <point x="70" y="-82" type="curve"/>
      <point x="70" y="-82" type="line"/>
      <point x="70" y="-120"/>
      <point x="91" y="-154"/>
      <point x="130" y="-154" type="curve"/>
      <point x="154" y="-154"/>
      <point x="179" y="-141"/>
      <point x="194" y="-113" type="curve"/>
      <point x="184" y="-94" type="line"/>
      <point x="176" y="-118"/>
      <point x="154" y="-131"/>
      <point x="134" y="-131" type="curve"/>
      <point x="108" y="-131"/>
      <point x="94" y="-107"/>
      <point x="94" y="-80" type="curve"/>
      <point x="94" y="-55"/>
      <point x="107" y="-25"/>
      <point x="128" y="-10" type="curve"/>
      <point x="115" y="8" type="line"/>
      <point x="86" y="-12"/>
      <point x="70" y="-49"/>
    </contour>
    <contour>
      <point x="172" y="-126" type="line"/>
      <point x="173" y="-178" type="line"/>
      <point x="198" y="-178" type="line"/>
      <point x="198" y="-22" type="line"/>
      <point x="173" y="-22" type="line"/>
      <point x="172" y="-120" type="line"/>
    </contour>
  </outline>
</glyph>
<glyph name="hau-oriya" format="2">
  <advance width="472"/>
  <note>
huorya
</note>
  <guideline x="288" y="191" angle="90"/>
  <guideline x="314" y="191" angle="90"/>
  <anchor x="86" y="-123" name="nukta"/>
  <anchor x="234" y="658" name="top"/>
  <anchor x="399" y="658" name="topright"/>
  <outline>
    <contour>
      <point x="199" y="-113" type="curve"/>
      <point x="199" y="-113" type="line"/>
      <point x="275" y="-113"/>
      <point x="314" y="-15"/>
      <point x="314" y="110" type="curve"/>
      <point x="288" y="126" type="line"/>
      <point x="288" y="110" type="line"/>
      <point x="288" y="0"/>
      <point x="259" y="-88"/>
      <point x="199" y="-88" type="curve"/>
      <point x="165" y="-88"/>
      <point x="145" y="-59"/>
      <point x="145" y="-29" type="curve"/>
      <point x="145" y="-3"/>
      <point x="160" y="27"/>
      <point x="195" y="27" type="curve"/>
      <point x="270" y="27"/>
      <point x="297" y="-113"/>
      <point x="383" y="-113" type="curve"/>
      <point x="402" y="-113"/>
      <point x="420" y="-106"/>
      <point x="435" y="-93" type="curve"/>
      <point x="421" y="-74" type="line"/>
      <point x="409" y="-83"/>
      <point x="397" y="-88"/>
      <point x="384" y="-88" type="curve"/>
      <point x="312" y="-88"/>
      <point x="286" y="52"/>
      <point x="194" y="52" type="curve"/>
      <point x="145" y="52"/>
      <point x="119" y="11"/>
      <point x="119" y="-29" type="curve"/>
      <point x="119" y="-78"/>
      <point x="154" y="-113"/>
    </contour>
    <contour>
      <point x="86" y="183" type="line"/>
      <point x="368" y="84" type="line"/>
      <point x="376" y="105" type="line"/>
      <point x="102" y="202" type="line"/>
      <point x="106" y="187" type="line"/>
      <point x="180" y="257" type="line"/>
      <point x="157" y="266" type="line"/>
      <point x="85" y="199" type="line"/>
    </contour>
    <contour>
      <point x="216" y="247" type="curve"/>
      <point x="216" y="247" type="line"/>
      <point x="256" y="247"/>
      <point x="288" y="261"/>
      <point x="313" y="297" type="curve"/>
      <point x="306" y="322" type="line"/>
      <point x="282" y="284"/>
      <point x="252" y="270"/>
      <point x="218" y="270" type="curve"/>
      <point x="164" y="270"/>
      <point x="138" y="310"/>
      <point x="138" y="357" type="curve"/>
      <point x="138" y="398"/>
      <point x="158" y="444"/>
      <point x="197" y="472" type="curve"/>
      <point x="182" y="490" type="line"/>
      <point x="136" y="459"/>
      <point x="112" y="406"/>
      <point x="112" y="357" type="curve"/>
      <point x="112" y="299"/>
      <point x="146" y="247"/>
    </contour>
    <contour>
      <point x="288" y="280" type="line"/>
      <point x="288" y="195" type="line"/>
      <point x="314" y="195" type="line"/>
      <point x="314" y="443" type="line"/>
      <point x="288" y="443" type="line"/>
      <point x="288" y="288" type="line"/>
    </contour>
    <contour>
      <point x="373" y="317" type="curve"/>
      <point x="392" y="302" type="line"/>
      <point x="427" y="345"/>
      <point x="444" y="398"/>
      <point x="444" y="453" type="curve"/>
      <point x="444" y="592"/>
      <point x="338" y="666"/>
      <point x="234" y="666" type="curve"/>
      <point x="137" y="666"/>
      <point x="28" y="601"/>
      <point x="28" y="481" type="curve"/>
      <point x="28" y="419"/>
      <point x="58" y="355"/>
      <point x="127" y="321" type="curve"/>
      <point x="129" y="349" type="line"/>
      <point x="79" y="376"/>
      <point x="54" y="426"/>
      <point x="54" y="480" type="curve"/>
      <point x="54" y="585"/>
      <point x="149" y="643"/>
      <point x="235" y="643" type="curve"/>
      <point x="337" y="643"/>
      <point x="418" y="563"/>
      <point x="418" y="451" type="curve"/>
      <point x="418" y="405"/>
      <point x="404" y="356"/>
    </contour>
  </outline>
</glyph>
<glyph name="iMatra-oriya.below" format="2">
  <note>
ivowelsignloworya
</note>
  <anchor x="290" y="0" name="_bottom"/>
  <anchor x="284" y="-144" name="bottom"/>
  <anchor x="311" y="-152" name="bottom_ra"/>
  <anchor x="229" y="-212" name="nukta"/>
  <outline>
    <contour>
      <point x="213" y="-109" type="line"/>
      <point x="383" y="-197" type="line"/>
      <point x="392" y="-178" type="line"/>
      <point x="216" y="-86" type="line"/>
      <point x="222" y="-103" type="line"/>
      <point x="316" y="0" type="line"/>
      <point x="302" y="17" type="line"/>
      <point x="207" y="-89" type="line"/>
    </contour>
  </outline>
</glyph>
<glyph name="ja-oriya.below" format="2">
  <note>
jasubscriptorya
</note>
  <guideline x="210" y="124" angle="0"/>
  <guideline x="157" y="206" angle="90"/>
  <guideline x="89" y="113" angle="0"/>
  <anchor x="187" y="110" name="_bottom"/>
  <anchor x="273" y="-164" name="bottom"/>
  <anchor x="299" y="-164" name="bottom_ra"/>
  <anchor x="158" y="-258" name="nukta"/>
  <outline>
    <contour>
      <point x="128" y="-168" type="curve"/>
      <point x="128" y="-168" type="line"/>
      <point x="149" y="-168"/>
      <point x="172" y="-163"/>
      <point x="197" y="-153" type="curve"/>
      <point x="181" y="-109"/>
      <point x="166" y="-62"/>
      <point x="166" y="-11" type="curve"/>
      <point x="166" y="45"/>
      <point x="185" y="94"/>
      <point x="225" y="94" type="curve"/>
      <point x="258" y="94"/>
      <point x="273" y="67"/>
      <point x="273" y="31" type="curve"/>
      <point x="273" y="-164" type="line"/>
      <point x="299" y="-164" type="line"/>
      <point x="299" y="31" type="line" smooth="yes"/>
      <point x="299" y="43"/>
      <point x="297" y="116"/>
      <point x="228" y="116" type="curve"/>
      <point x="166" y="116"/>
      <point x="141" y="59"/>
      <point x="141" y="-13" type="curve"/>
      <point x="141" y="-66"/>
      <point x="154" y="-104"/>
      <point x="171" y="-153" type="curve"/>
      <point x="180" y="-134" type="line"/>
      <point x="163" y="-141"/>
      <point x="147" y="-145"/>
      <point x="130" y="-145" type="curve"/>
      <point x="75" y="-145"/>
      <point x="43" y="-101"/>
      <point x="43" y="-37" type="curve"/>
      <point x="43" y="14"/>
      <point x="68" y="60"/>
      <point x="99" y="99" type="curve"/>
      <point x="79" y="113" type="line"/>
      <point x="42" y="68"/>
      <point x="18" y="19"/>
      <point x="18" y="-39" type="curve"/>
      <point x="18" y="-121"/>
      <point x="65" y="-168"/>
    </contour>
  </outline>
</glyph>
<glyph name="jaja-oriya" format="2">
  <advance width="505"/>
  <note>
jajaorya
</note>
  <guideline x="383" y="177" angle="90"/>
  <guideline x="443" y="173" angle="90"/>
  <anchor x="272" y="-278" name="nukta"/>
  <anchor x="251" y="658" name="top"/>
  <anchor x="432" y="658" name="topright"/>
  <outline>
    <contour>
      <point x="100" y="286" type="curve"/>
      <point x="100" y="286" type="line"/>
      <point x="107" y="314" type="line"/>
      <point x="75" y="352"/>
      <point x="54" y="397"/>
      <point x="54" y="453" type="curve"/>
      <point x="54" y="562"/>
      <point x="134" y="641"/>
      <point x="252" y="641" type="curve"/>
      <point x="371" y="641"/>
      <point x="451" y="560"/>
      <point x="451" y="440" type="curve"/>
      <point x="451" y="398"/>
      <point x="441" y="347"/>
      <point x="411" y="310" type="curve"/>
      <point x="429" y="295" type="line"/>
      <point x="461" y="333"/>
      <point x="477" y="388"/>
      <point x="477" y="444" type="curve"/>
      <point x="477" y="577"/>
      <point x="384" y="666"/>
      <point x="251" y="666" type="curve"/>
      <point x="120" y="666"/>
      <point x="28" y="579"/>
      <point x="28" y="455" type="curve"/>
      <point x="28" y="387"/>
      <point x="56" y="328"/>
    </contour>
    <contour>
      <point x="272" y="-168" type="curve"/>
      <point x="272" y="-168" type="line"/>
      <point x="293" y="-168"/>
      <point x="316" y="-163"/>
      <point x="341" y="-153" type="curve"/>
      <point x="325" y="-109"/>
      <point x="310" y="-62"/>
      <point x="310" y="-11" type="curve"/>
      <point x="310" y="45"/>
      <point x="329" y="94"/>
      <point x="369" y="94" type="curve"/>
      <point x="402" y="94"/>
      <point x="418" y="67"/>
      <point x="418" y="31" type="curve"/>
      <point x="418" y="-164" type="line"/>
      <point x="443" y="-164" type="line"/>
      <point x="443" y="31" type="line" smooth="yes"/>
      <point x="443" y="43"/>
      <point x="441" y="116"/>
      <point x="372" y="116" type="curve"/>
      <point x="310" y="116"/>
      <point x="285" y="59"/>
      <point x="285" y="-13" type="curve"/>
      <point x="285" y="-66"/>
      <point x="298" y="-104"/>
      <point x="315" y="-153" type="curve"/>
      <point x="324" y="-134" type="line"/>
      <point x="307" y="-141"/>
      <point x="291" y="-145"/>
      <point x="274" y="-145" type="curve"/>
      <point x="219" y="-145"/>
      <point x="187" y="-101"/>
      <point x="187" y="-37" type="curve"/>
      <point x="187" y="15"/>
      <point x="212" y="61"/>
      <point x="244" y="101" type="curve"/>
      <point x="217" y="105" type="line"/>
      <point x="183" y="62"/>
      <point x="162" y="16"/>
      <point x="162" y="-39" type="curve"/>
      <point x="162" y="-121"/>
      <point x="209" y="-168"/>
    </contour>
    <contour>
      <point x="213" y="90" type="curve"/>
      <point x="213" y="90" type="line"/>
      <point x="234" y="90"/>
      <point x="256" y="94"/>
      <point x="278" y="102" type="curve"/>
      <point x="263" y="143"/>
      <point x="245" y="193"/>
      <point x="245" y="254" type="curve"/>
      <point x="245" y="317"/>
      <point x="258" y="368"/>
      <point x="308" y="368" type="curve"/>
      <point x="357" y="368"/>
      <point x="357" y="321"/>
      <point x="357" y="299" type="curve"/>
      <point x="357" y="96" type="line"/>
      <point x="383" y="96" type="line"/>
      <point x="383" y="299" type="line" smooth="yes"/>
      <point x="383" y="356"/>
      <point x="358" y="393"/>
      <point x="309" y="393" type="curve"/>
      <point x="243" y="393"/>
      <point x="219" y="330"/>
      <point x="219" y="255" type="curve"/>
      <point x="219" y="195"/>
      <point x="237" y="144"/>
      <point x="252" y="105" type="curve"/>
      <point x="268" y="124" type="line"/>
      <point x="250" y="118"/>
      <point x="230" y="115"/>
      <point x="216" y="115" type="curve"/>
      <point x="155" y="115"/>
      <point x="114" y="152"/>
      <point x="114" y="227" type="curve"/>
      <point x="114" y="293"/>
      <point x="143" y="347"/>
      <point x="190" y="399" type="curve"/>
      <point x="172" y="414" type="line"/>
      <point x="122" y="365"/>
      <point x="88" y="299"/>
      <point x="88" y="225" type="curve"/>
      <point x="88" y="137"/>
      <point x="139" y="90"/>
    </contour>
  </outline>
</glyph>
<glyph name="la-oriya.below" format="2">
  <note>
lasubscriptorya
</note>
  <guideline x="162" y="191" angle="90"/>
  <anchor x="207" y="110" name="_bottom"/>
  <anchor x="330" y="-164" name="bottom"/>
  <anchor x="356" y="-164" name="bottom_ra"/>
  <anchor x="160" y="-236" name="nukta"/>
  <outline>
    <contour>
      <point x="283" y="-140" type="line"/>
      <point x="296" y="-155" type="line"/>
      <point x="296" y="27" type="line" smooth="yes"/>
      <point x="296" y="84"/>
      <point x="270" y="116"/>
      <point x="225" y="116" type="curve"/>
      <point x="181" y="116"/>
      <point x="153" y="84"/>
      <point x="153" y="27" type="curve"/>
      <point x="170" y="27" type="line"/>
      <point x="170" y="79"/>
      <point x="145" y="116"/>
      <point x="101" y="116" type="curve"/>
      <point x="41" y="116"/>
      <point x="18" y="67"/>
      <point x="18" y="-16" type="curve"/>
      <point x="18" y="-65"/>
      <point x="24" y="-118"/>
      <point x="37" y="-169" type="curve"/>
      <point x="63" y="-163" type="line"/>
      <point x="51" y="-120"/>
      <point x="43" y="-65"/>
      <point x="43" y="-16" type="curve"/>
      <point x="43" y="44"/>
      <point x="56" y="93"/>
      <point x="99" y="93" type="curve"/>
      <point x="131" y="93"/>
      <point x="148" y="65"/>
      <point x="148" y="27" type="curve"/>
      <point x="148" y="-164" type="line"/>
      <point x="174" y="-164" type="line"/>
      <point x="174" y="27" type="line" smooth="yes"/>
      <point x="174" y="69"/>
      <point x="192" y="93"/>
      <point x="223" y="93" type="curve"/>
      <point x="255" y="93"/>
      <point x="270" y="69"/>
      <point x="270" y="27" type="curve"/>
      <point x="270" y="-164" type="line"/>
      <point x="356" y="-164" type="line"/>
      <point x="356" y="-140" type="line"/>
    </contour>
  </outline>
</glyph>
<glyph name="lla-oriya.below" format="2">
  <note>
llasubscriptorya
</note>
  <guideline x="161" y="202" angle="90"/>
  <anchor x="206" y="110" name="_bottom"/>
  <anchor x="270" y="-164" name="bottom"/>
  <anchor x="296" y="-164" name="bottom_ra"/>
  <anchor x="161" y="-234" name="nukta"/>
  <outline>
    <contour>
      <point x="270" y="27" type="curve"/>
      <point x="270" y="-164" type="line"/>
      <point x="296" y="-164" type="line"/>
      <point x="296" y="27" type="line" smooth="yes"/>
      <point x="296" y="84"/>
      <point x="270" y="116"/>
      <point x="225" y="116" type="curve"/>
      <point x="181" y="116"/>
      <point x="153" y="84"/>
      <point x="153" y="27" type="curve"/>
      <point x="170" y="27" type="line"/>
      <point x="170" y="79"/>
      <point x="146" y="116"/>
      <point x="97" y="116" type="curve"/>
      <point x="41" y="116"/>
      <point x="18" y="67"/>
      <point x="18" y="-20" type="curve"/>
      <point x="18" y="-64"/>
      <point x="24" y="-118"/>
      <point x="37" y="-169" type="curve"/>
      <point x="64" y="-163" type="line"/>
      <point x="52" y="-120"/>
      <point x="44" y="-65"/>
      <point x="44" y="-18" type="curve"/>
      <point x="44" y="44"/>
      <point x="58" y="93"/>
      <point x="99" y="93" type="curve"/>
      <point x="130" y="93"/>
      <point x="148" y="65"/>
      <point x="148" y="27" type="curve"/>
      <point x="148" y="-164" type="line"/>
      <point x="174" y="-164" type="line"/>
      <point x="174" y="27" type="line" smooth="yes"/>
      <point x="174" y="69"/>
      <point x="192" y="93"/>
      <point x="223" y="93" type="curve"/>
      <point x="254" y="93"/>
      <point x="270" y="69"/>
    </contour>
  </outline>
</glyph>
<glyph name="ma-oriya.base" format="2">
  <advance width="501"/>
  <anchor x="436" y="110" name="bottom"/>
  <anchor x="449" y="106" name="bottom_ta"/>
  <anchor x="239" y="658" name="top"/>
  <anchor x="436" y="658" name="topright"/>
  <outline>
    <contour>
      <point x="131" y="262" type="curve"/>
      <point x="131" y="262" type="line"/>
      <point x="137" y="286" type="line"/>
      <point x="85" y="320"/>
      <point x="54" y="389"/>
      <point x="54" y="457" type="curve"/>
      <point x="54" y="555"/>
      <point x="117" y="641"/>
      <point x="234" y="641" type="curve"/>
      <point x="342" y="641"/>
      <point x="425" y="567"/>
      <point x="425" y="434" type="curve"/>
      <point x="449" y="436" type="line"/>
      <point x="449" y="576"/>
      <point x="361" y="666"/>
      <point x="232" y="666" type="curve"/>
      <point x="97" y="666"/>
      <point x="28" y="568"/>
      <point x="28" y="460" type="curve"/>
      <point x="28" y="381"/>
      <point x="65" y="300"/>
    </contour>
    <contour>
      <point x="136" y="91" type="curve"/>
      <point x="136" y="91" type="line"/>
      <point x="160" y="91"/>
      <point x="171" y="110"/>
      <point x="171" y="130" type="curve"/>
      <point x="171" y="149"/>
      <point x="160" y="168"/>
      <point x="137" y="168" type="curve"/>
      <point x="120" y="168"/>
      <point x="102" y="156"/>
      <point x="102" y="133" type="curve"/>
      <point x="121" y="135" type="line"/>
      <point x="120" y="143"/>
      <point x="119" y="151"/>
      <point x="119" y="160" type="curve"/>
      <point x="119" y="265"/>
      <point x="198" y="359"/>
      <point x="318" y="386" type="curve"/>
      <point x="313" y="409" type="line"/>
      <point x="190" y="385"/>
      <point x="93" y="278"/>
      <point x="93" y="164" type="curve"/>
      <point x="93" y="128"/>
      <point x="103" y="91"/>
    </contour>
    <contour>
      <point x="423" y="507" type="line"/>
      <point x="423" y="96" type="line"/>
      <point x="449" y="96" type="line"/>
      <point x="449" y="658" type="line"/>
      <point x="423" y="658" type="line"/>
      <point x="423" y="519" type="line"/>
    </contour>
  </outline>
</glyph>
<glyph name="nna-oriya.below" format="2">
  <note>
nnasubscriptorya
</note>
  <guideline x="150" y="144" angle="90"/>
  <anchor x="186" y="110" name="_bottom"/>
  <anchor x="200" y="-328" name="nukta"/>
  <outline>
    <contour>
      <point x="18" y="-116" type="curve"/>
      <point x="18" y="-116" type="line"/>
      <point x="18" y="-196"/>
      <point x="65" y="-248"/>
      <point x="131" y="-248" type="curve"/>
      <point x="183" y="-248"/>
      <point x="216" y="-216"/>
      <point x="216" y="-169" type="curve"/>
      <point x="216" y="-117"/>
      <point x="172" y="-85"/>
      <point x="112" y="-85" type="curve"/>
      <point x="84" y="-85"/>
      <point x="55" y="-92"/>
      <point x="28" y="-107" type="curve"/>
      <point x="29" y="-130" type="line"/>
      <point x="54" y="-115"/>
      <point x="83" y="-108"/>
      <point x="108" y="-108" type="curve"/>
      <point x="158" y="-108"/>
      <point x="191" y="-129"/>
      <point x="191" y="-168" type="curve"/>
      <point x="191" y="-202"/>
      <point x="168" y="-225"/>
      <point x="131" y="-225" type="curve"/>
      <point x="78" y="-225"/>
      <point x="43" y="-181"/>
      <point x="43" y="-115" type="curve"/>
      <point x="43" y="-53"/>
      <point x="75" y="-13"/>
      <point x="123" y="-13" type="curve"/>
      <point x="138" y="-13"/>
      <point x="153" y="-17"/>
      <point x="169" y="-25" type="curve"/>
      <point x="179" y="-4" type="line"/>
      <point x="160" y="6"/>
      <point x="141" y="10"/>
      <point x="123" y="10" type="curve"/>
      <point x="59" y="10"/>
      <point x="18" y="-41"/>
    </contour>
    <contour>
      <point x="256" y="24" type="line"/>
      <point x="256" y="-244" type="line"/>
      <point x="282" y="-244" type="line"/>
      <point x="282" y="112" type="line"/>
      <point x="256" y="112" type="line"/>
      <point x="256" y="32" type="line"/>
    </contour>
    <contour>
      <point x="85" y="-10" type="curve"/>
      <point x="85" y="-10" type="line"/>
      <point x="109" y="-3" type="line"/>
      <point x="102" y="11"/>
      <point x="99" y="25"/>
      <point x="99" y="37" type="curve"/>
      <point x="99" y="70"/>
      <point x="126" y="93"/>
      <point x="158" y="93" type="curve"/>
      <point x="200" y="93"/>
      <point x="259" y="60"/>
      <point x="259" y="-37" type="curve"/>
      <point x="281" y="-37" type="line"/>
      <point x="281" y="75"/>
      <point x="209" y="116"/>
      <point x="156" y="116" type="curve"/>
      <point x="110" y="116"/>
      <point x="74" y="85"/>
      <point x="74" y="38" type="curve"/>
      <point x="74" y="23"/>
      <point x="78" y="7"/>
    </contour>
  </outline>
</glyph>
<glyph name="nnaddara-oriya" format="2">
  <advance width="527"/>
  <note>
nnaddaraorya
</note>
  <guideline x="449" y="-28" angle="90"/>
  <guideline x="449" y="177" angle="90"/>
  <guideline x="509" y="177" angle="90"/>
  <anchor x="288" y="-334" name="nukta"/>
  <anchor x="252" y="658" name="top"/>
  <anchor x="436" y="658" name="topright"/>
  <outline>
    <contour>
      <point x="212" y="90" type="curve"/>
      <point x="212" y="90" type="line"/>
      <point x="292" y="90"/>
      <point x="348" y="138"/>
      <point x="348" y="211" type="curve"/>
      <point x="348" y="300"/>
      <point x="271" y="344"/>
      <point x="180" y="344" type="curve"/>
      <point x="133" y="344"/>
      <point x="82" y="332"/>
      <point x="37" y="309" type="curve"/>
      <point x="38" y="286" type="line"/>
      <point x="80" y="307"/>
      <point x="131" y="319"/>
      <point x="177" y="319" type="curve"/>
      <point x="255" y="319"/>
      <point x="322" y="286"/>
      <point x="322" y="211" type="curve"/>
      <point x="322" y="152"/>
      <point x="276" y="115"/>
      <point x="211" y="115" type="curve"/>
      <point x="110" y="115"/>
      <point x="54" y="208"/>
      <point x="54" y="303" type="curve"/>
      <point x="54" y="403"/>
      <point x="115" y="477"/>
      <point x="202" y="477" type="curve"/>
      <point x="227" y="477"/>
      <point x="255" y="471"/>
      <point x="284" y="458" type="curve"/>
      <point x="294" y="478" type="line"/>
      <point x="263" y="495"/>
      <point x="231" y="502"/>
      <point x="202" y="502" type="curve"/>
      <point x="104" y="502"/>
      <point x="28" y="419"/>
      <point x="28" y="303" type="curve"/>
      <point x="28" y="196"/>
      <point x="92" y="90"/>
    </contour>
    <contour>
      <point x="423" y="518" type="line"/>
      <point x="423" y="196" type="line"/>
      <point x="449" y="196" type="line"/>
      <point x="449" y="658" type="line"/>
      <point x="423" y="658" type="line"/>
      <point x="423" y="528" type="line"/>
    </contour>
    <contour>
      <point x="259" y="641" type="curve"/>
      <point x="259" y="641" type="line"/>
      <point x="338" y="641"/>
      <point x="425" y="584"/>
      <point x="425" y="434" type="curve"/>
      <point x="449" y="436" type="line"/>
      <point x="449" y="594"/>
      <point x="352" y="666"/>
      <point x="259" y="666" type="curve"/>
      <point x="187" y="666"/>
      <point x="123" y="623"/>
      <point x="123" y="538" type="curve"/>
      <point x="123" y="527"/>
      <point x="124" y="504"/>
      <point x="132" y="485" type="curve"/>
      <point x="155" y="494" type="line"/>
      <point x="151" y="505"/>
      <point x="148" y="527"/>
      <point x="148" y="543" type="curve"/>
      <point x="148" y="608"/>
      <point x="199" y="641"/>
    </contour>
    <contour>
      <point x="145" y="-17" type="curve"/>
      <point x="132" y="-37" type="line"/>
      <point x="182" y="-71"/>
      <point x="242" y="-88"/>
      <point x="298" y="-88" type="curve"/>
      <point x="410" y="-88"/>
      <point x="509" y="-20"/>
      <point x="509" y="110" type="curve"/>
      <point x="509" y="175"/>
      <point x="483" y="212"/>
      <point x="437" y="212" type="curve"/>
      <point x="383" y="212"/>
      <point x="359" y="163"/>
      <point x="359" y="116" type="curve"/>
      <point x="359" y="67"/>
      <point x="384" y="20"/>
      <point x="432" y="20" type="curve"/>
      <point x="466" y="20"/>
      <point x="487" y="43"/>
      <point x="498" y="83" type="curve"/>
      <point x="480" y="70" type="line"/>
      <point x="466" y="-19"/>
      <point x="386" y="-63"/>
      <point x="298" y="-63" type="curve"/>
      <point x="246" y="-63"/>
      <point x="191" y="-47"/>
    </contour>
    <contour>
      <point x="483" y="117" type="curve"/>
      <point x="483" y="117" type="line"/>
      <point x="483" y="71"/>
      <point x="466" y="45"/>
      <point x="435" y="45" type="curve"/>
      <point x="404" y="45"/>
      <point x="385" y="72"/>
      <point x="385" y="119" type="curve"/>
      <point x="385" y="162"/>
      <point x="403" y="187"/>
      <point x="434" y="187" type="curve"/>
      <point x="465" y="187"/>
      <point x="483" y="161"/>
    </contour>
    <contour>
      <point x="125" y="-244" type="line"/>
      <point x="449" y="-244" type="line"/>
      <point x="449" y="-30" type="line"/>
      <point x="423" y="-30" type="line"/>
      <point x="423" y="-219" type="line"/>
      <point x="125" y="-219" type="line"/>
    </contour>
  </outline>
</glyph>
<glyph name="partta-oriya.below" format="2">
  <advance width="425"/>
  <note>
tasubscriptorya
</note>
  <outline>
    <contour>
      <point x="28" y="-113" type="curve"/>
      <point x="15" y="-133" type="line"/>
      <point x="65" y="-167"/>
      <point x="125" y="-184"/>
      <point x="181" y="-184" type="curve"/>
      <point x="293" y="-184"/>
      <point x="392" y="-116"/>
      <point x="392" y="14" type="curve"/>
      <point x="392" y="79"/>
      <point x="366" y="116"/>
      <point x="320" y="116" type="curve"/>
      <point x="266" y="116"/>
      <point x="242" y="67"/>
      <point x="242" y="20" type="curve"/>
      <point x="242" y="-29"/>
      <point x="267" y="-76"/>
      <point x="315" y="-76" type="curve"/>
      <point x="349" y="-76"/>
      <point x="370" y="-53"/>
      <point x="381" y="-13" type="curve"/>
      <point x="363" y="-26" type="line"/>
      <point x="349" y="-115"/>
      <point x="269" y="-159"/>
      <point x="181" y="-159" type="curve"/>
      <point x="129" y="-159"/>
      <point x="74" y="-143"/>
    </contour>
    <contour>
      <point x="366" y="21" type="curve"/>
      <point x="366" y="21" type="line"/>
      <point x="366" y="-25"/>
      <point x="349" y="-51"/>
      <point x="318" y="-51" type="curve"/>
      <point x="287" y="-51"/>
      <point x="268" y="-24"/>
      <point x="268" y="23" type="curve"/>
      <point x="268" y="66"/>
      <point x="286" y="91"/>
      <point x="317" y="91" type="curve"/>
      <point x="348" y="91"/>
      <point x="366" y="65"/>
    </contour>
  </outline>
</glyph>
<glyph name="pata-oriya" format="2">
  <advance width="560"/>
  <note>
pataorya
</note>
  <guideline x="482" y="274" angle="90"/>
  <guideline x="542" y="274" angle="90"/>
  <anchor x="318" y="-168" name="bottom"/>
  <anchor x="344" y="-168" name="bottom_ra"/>
  <anchor x="335" y="-278" name="nukta"/>
  <anchor x="253" y="658" name="top"/>
  <anchor x="469" y="658" name="topright"/>
  <outline>
    <contour>
      <point x="137" y="192" type="curve"/>
      <point x="137" y="192" type="line"/>
      <point x="142" y="221" type="line"/>
      <point x="82" y="269"/>
      <point x="54" y="339"/>
      <point x="54" y="416" type="curve"/>
      <point x="54" y="560"/>
      <point x="152" y="641"/>
      <point x="252" y="641" type="curve"/>
      <point x="355" y="641"/>
      <point x="460" y="566"/>
      <point x="460" y="397" type="curve"/>
      <point x="482" y="397" type="line"/>
      <point x="482" y="582"/>
      <point x="366" y="666"/>
      <point x="253" y="666" type="curve"/>
      <point x="141" y="666"/>
      <point x="28" y="576"/>
      <point x="28" y="417" type="curve"/>
      <point x="28" y="329"/>
      <point x="63" y="246"/>
    </contour>
    <contour>
      <point x="293" y="-8" type="curve"/>
      <point x="293" y="-8" type="line"/>
      <point x="335" y="-8"/>
      <point x="373" y="7"/>
      <point x="404" y="33" type="curve"/>
      <point x="404" y="65" type="line"/>
      <point x="374" y="35"/>
      <point x="336" y="18"/>
      <point x="294" y="17" type="curve"/>
      <point x="208" y="15"/>
      <point x="149" y="88"/>
      <point x="149" y="180" type="curve"/>
      <point x="149" y="264"/>
      <point x="196" y="330"/>
      <point x="262" y="358" type="curve"/>
      <point x="253" y="381" type="line"/>
      <point x="174" y="349"/>
      <point x="123" y="273"/>
      <point x="123" y="182" type="curve"/>
      <point x="123" y="73"/>
      <point x="192" y="-8"/>
    </contour>
    <contour>
      <point x="456" y="479" type="line"/>
      <point x="456" y="118" type="line"/>
      <point x="482" y="118" type="line"/>
      <point x="482" y="658" type="line"/>
      <point x="456" y="658" type="line"/>
      <point x="456" y="494" type="line"/>
    </contour>
    <contour>
      <point x="331" y="-168" type="curve"/>
      <point x="331" y="-168" type="line"/>
      <point x="443" y="-168"/>
      <point x="542" y="-100"/>
      <point x="542" y="30" type="curve"/>
      <point x="542" y="95"/>
      <point x="516" y="132"/>
      <point x="470" y="132" type="curve"/>
      <point x="416" y="132"/>
      <point x="392" y="83"/>
      <point x="392" y="36" type="curve"/>
      <point x="392" y="-13"/>
      <point x="417" y="-60"/>
      <point x="465" y="-60" type="curve"/>
      <point x="499" y="-60"/>
      <point x="520" y="-37"/>
      <point x="531" y="3" type="curve"/>
      <point x="513" y="-10" type="line"/>
      <point x="499" y="-99"/>
      <point x="419" y="-143"/>
      <point x="331" y="-143" type="curve"/>
      <point x="279" y="-143"/>
      <point x="224" y="-127"/>
      <point x="178" y="-97" type="curve"/>
      <point x="165" y="-117" type="line"/>
      <point x="215" y="-151"/>
      <point x="275" y="-168"/>
    </contour>
    <contour>
      <point x="516" y="37" type="curve"/>
      <point x="516" y="37" type="line"/>
      <point x="516" y="-9"/>
      <point x="499" y="-35"/>
      <point x="468" y="-35" type="curve"/>
      <point x="437" y="-35"/>
      <point x="418" y="-8"/>
      <point x="418" y="39" type="curve"/>
      <point x="418" y="82"/>
      <point x="436" y="107"/>
      <point x="467" y="107" type="curve"/>
      <point x="498" y="107"/>
      <point x="516" y="81"/>
    </contour>
  </outline>
</glyph>
<glyph name="period.latn" format="2">
  <advance width="180"/>
  <outline>
    <contour>
      <point x="65" y="30" type="curve" smooth="yes"/>
      <point x="65" y="9"/>
      <point x="70" y="-6"/>
      <point x="90" y="-6" type="curve" smooth="yes"/>
      <point x="108" y="-6"/>
      <point x="116" y="7"/>
      <point x="116" y="30" type="curve" smooth="yes"/>
      <point x="116" y="53"/>
      <point x="109" y="65"/>
      <point x="90" y="65" type="curve" smooth="yes"/>
      <point x="70" y="65"/>
      <point x="65" y="49"/>
    </contour>
  </outline>
</glyph>
<glyph name="plus.latn" format="2">
  <advance width="399"/>
  <outline>
    <contour>
      <point x="212" y="363" type="line"/>
      <point x="212" y="583" type="line"/>
      <point x="188" y="583" type="line"/>
      <point x="188" y="363" type="line"/>
      <point x="29" y="363" type="line"/>
      <point x="29" y="339" type="line"/>
      <point x="188" y="339" type="line"/>
      <point x="188" y="123" type="line"/>
      <point x="212" y="123" type="line"/>
      <point x="212" y="339" type="line"/>
      <point x="369" y="339" type="line"/>
      <point x="369" y="363" type="line"/>
    </contour>
  </outline>
</glyph>
<glyph name="rauMatra-oriya.below" format="2">
  <note>
uvowelsignaltorya
</note>
  <anchor x="463" y="0" name="_bottom_ra"/>
  <outline>
    <contour>
      <point x="128" y="-80" type="line"/>
      <point x="463" y="-80" type="line"/>
      <point x="463" y="10" type="line"/>
      <point x="437" y="10" type="line"/>
      <point x="437" y="-55" type="line"/>
      <point x="128" y="-55" type="line"/>
    </contour>
    <contour>
      <point x="334" y="-69" type="curve"/>
      <point x="334" y="-62" type="line"/>
      <point x="308" y="-62" type="line"/>
      <point x="308" y="-70" type="line" smooth="yes"/>
      <point x="308" y="-193"/>
      <point x="273" y="-238"/>
      <point x="231" y="-238" type="curve"/>
      <point x="203" y="-238"/>
      <point x="184" y="-218"/>
      <point x="184" y="-189" type="curve"/>
      <point x="184" y="-163"/>
      <point x="199" y="-140"/>
      <point x="228" y="-140" type="curve"/>
      <point x="293" y="-140"/>
      <point x="320" y="-263"/>
      <point x="408" y="-263" type="curve"/>
      <point x="423" y="-263"/>
      <point x="438" y="-260"/>
      <point x="451" y="-254" type="curve"/>
      <point x="443" y="-230" type="line"/>
      <point x="432" y="-235"/>
      <point x="419" y="-238"/>
      <point x="407" y="-238" type="curve"/>
      <point x="338" y="-238"/>
      <point x="308" y="-115"/>
      <point x="226" y="-115" type="curve"/>
      <point x="182" y="-115"/>
      <point x="158" y="-150"/>
      <point x="158" y="-188" type="curve"/>
      <point x="158" y="-229"/>
      <point x="186" y="-263"/>
      <point x="230" y="-263" type="curve"/>
      <point x="296" y="-263"/>
      <point x="334" y="-189"/>
    </contour>
  </outline>
</glyph>
<glyph name="rephaiLength-oriya" format="2">
  <note>
ailengthmarkrephorya
</note>
  <anchor x="474" y="658" name="_topright"/>
  <outline>
    <contour>
      <point x="477" y="834" type="line"/>
      <point x="493" y="818" type="line"/>
      <point x="595" y="931" type="line"/>
      <point x="578" y="946" type="line"/>
    </contour>
    <contour>
      <point x="462" y="704" type="curve"/>
      <point x="462" y="704" type="line"/>
      <point x="484" y="694" type="line"/>
      <point x="499" y="722"/>
      <point x="508" y="752"/>
      <point x="508" y="780" type="curve"/>
      <point x="508" y="838"/>
      <point x="472" y="876"/>
      <point x="417" y="876" type="curve"/>
      <point x="347" y="876"/>
      <point x="270" y="816"/>
      <point x="205" y="816" type="curve"/>
      <point x="172" y="816"/>
      <point x="145" y="831"/>
      <point x="122" y="873" type="curve"/>
      <point x="102" y="862" type="line"/>
      <point x="129" y="808"/>
      <point x="166" y="791"/>
      <point x="204" y="791" type="curve"/>
      <point x="274" y="791"/>
      <point x="350" y="851"/>
      <point x="413" y="851" type="curve"/>
      <point x="460" y="851"/>
      <point x="482" y="816"/>
      <point x="482" y="776" type="curve"/>
      <point x="482" y="753"/>
      <point x="474" y="728"/>
    </contour>
  </outline>
</glyph>
<glyph name="rephaiLength-oriya.stem" format="2">
  <advance width="600"/>
  <note>
ailengthmarkrephorya
</note>
  <anchor x="427" y="658" name="_topright"/>
  <outline>
    <contour>
      <point x="470" y="834" type="line"/>
      <point x="486" y="818" type="line"/>
      <point x="588" y="931" type="line"/>
      <point x="571" y="946" type="line"/>
    </contour>
    <contour>
      <point x="414" y="658" type="curve"/>
      <point x="414" y="658" type="line"/>
      <point x="439" y="646" type="line"/>
      <point x="479" y="683"/>
      <point x="501" y="734"/>
      <point x="501" y="780" type="curve"/>
      <point x="501" y="838"/>
      <point x="465" y="876"/>
      <point x="410" y="876" type="curve"/>
      <point x="340" y="876"/>
      <point x="263" y="816"/>
      <point x="198" y="816" type="curve"/>
      <point x="165" y="816"/>
      <point x="138" y="831"/>
      <point x="115" y="873" type="curve"/>
      <point x="95" y="862" type="line"/>
      <point x="122" y="808"/>
      <point x="159" y="791"/>
      <point x="197" y="791" type="curve"/>
      <point x="267" y="791"/>
      <point x="343" y="851"/>
      <point x="406" y="851" type="curve"/>
      <point x="453" y="851"/>
      <point x="475" y="816"/>
      <point x="475" y="776" type="curve"/>
      <point x="475" y="735"/>
      <point x="453" y="687"/>
    </contour>
  </outline>
</glyph>
<glyph name="rephaiLength-oriya.umbrella" format="2">
  <advance width="600"/>
  <note>
ailengthmarkrephorya
</note>
  <anchor x="469" y="658" name="_topright"/>
  <outline>
    <contour>
      <point x="472" y="834" type="line"/>
      <point x="488" y="818" type="line"/>
      <point x="590" y="931" type="line"/>
      <point x="573" y="946" type="line"/>
    </contour>
    <contour>
      <point x="457" y="704" type="curve"/>
      <point x="457" y="704" type="line"/>
      <point x="479" y="694" type="line"/>
      <point x="494" y="722"/>
      <point x="503" y="752"/>
      <point x="503" y="780" type="curve"/>
      <point x="503" y="838"/>
      <point x="467" y="876"/>
      <point x="412" y="876" type="curve"/>
      <point x="342" y="876"/>
      <point x="265" y="816"/>
      <point x="200" y="816" type="curve"/>
      <point x="167" y="816"/>
      <point x="140" y="831"/>
      <point x="117" y="873" type="curve"/>
      <point x="97" y="862" type="line"/>
      <point x="124" y="808"/>
      <point x="161" y="791"/>
      <point x="199" y="791" type="curve"/>
      <point x="269" y="791"/>
      <point x="345" y="851"/>
      <point x="408" y="851" type="curve"/>
      <point x="455" y="851"/>
      <point x="477" y="816"/>
      <point x="477" y="776" type="curve"/>
      <point x="477" y="753"/>
      <point x="469" y="728"/>
    </contour>
  </outline>
</glyph>
<glyph name="sa-oriya.base" format="2">
  <advance width="471"/>
  <anchor x="406" y="110" name="bottom"/>
  <anchor x="223" y="-58" name="nukta"/>
  <anchor x="236" y="658" name="top"/>
  <anchor x="406" y="658" name="topright"/>
  <outline>
    <contour>
      <point x="135" y="287" type="curve"/>
      <point x="135" y="287" type="line"/>
      <point x="148" y="305" type="line"/>
      <point x="83" y="345"/>
      <point x="54" y="403"/>
      <point x="54" y="467" type="curve"/>
      <point x="54" y="582"/>
      <point x="134" y="641"/>
      <point x="216" y="641" type="curve"/>
      <point x="304" y="641"/>
      <point x="395" y="573"/>
      <point x="395" y="434" type="curve"/>
      <point x="419" y="436" type="line"/>
      <point x="419" y="591"/>
      <point x="315" y="666"/>
      <point x="215" y="666" type="curve"/>
      <point x="120" y="666"/>
      <point x="28" y="599"/>
      <point x="28" y="470" type="curve"/>
      <point x="28" y="396"/>
      <point x="63" y="330"/>
    </contour>
    <contour>
      <point x="75" y="211" type="line"/>
      <point x="403" y="92" type="line"/>
      <point x="419" y="92" type="line"/>
      <point x="419" y="106" type="line"/>
      <point x="411" y="114" type="line"/>
      <point x="87" y="232" type="line"/>
      <point x="91" y="216" type="line"/>
      <point x="266" y="425" type="line"/>
      <point x="247" y="440" type="line"/>
      <point x="70" y="229" type="line"/>
    </contour>
    <contour>
      <point x="393" y="506" type="line"/>
      <point x="393" y="101" type="line"/>
      <point x="419" y="101" type="line"/>
      <point x="419" y="658" type="line"/>
      <point x="393" y="658" type="line"/>
      <point x="393" y="519" type="line"/>
    </contour>
  </outline>
</glyph>
<glyph name="sa-oriya.below" format="2">
  <note>
sasubscriptorya
</note>
  <guideline x="147" y="165" angle="90"/>
  <anchor x="179" y="110" name="_bottom"/>
  <outline>
    <contour>
      <point x="86" y="-121" type="curve"/>
      <point x="86" y="-121" type="line"/>
      <point x="100" y="-101" type="line"/>
      <point x="61" y="-75"/>
      <point x="43" y="-48"/>
      <point x="43" y="-3" type="curve"/>
      <point x="43" y="60"/>
      <point x="89" y="93"/>
      <point x="139" y="93" type="curve"/>
      <point x="194" y="93"/>
      <point x="252" y="51"/>
      <point x="252" y="-37" type="curve"/>
      <point x="274" y="-37" type="line"/>
      <point x="274" y="67"/>
      <point x="203" y="116"/>
      <point x="136" y="116" type="curve"/>
      <point x="76" y="116"/>
      <point x="18" y="76"/>
      <point x="18" y="0" type="curve"/>
      <point x="18" y="-55"/>
      <point x="39" y="-90"/>
    </contour>
    <contour>
      <point x="257" y="-248" type="line"/>
      <point x="275" y="-248" type="line"/>
      <point x="275" y="-228" type="line"/>
      <point x="61" y="-152" type="line"/>
      <point x="70" y="-168" type="line"/>
      <point x="175" y="-40" type="line"/>
      <point x="156" y="-25" type="line"/>
      <point x="44" y="-160" type="line"/>
      <point x="48" y="-174" type="line"/>
    </contour>
    <contour>
      <point x="249" y="16" type="line"/>
      <point x="249" y="-243" type="line"/>
      <point x="275" y="-243" type="line"/>
      <point x="275" y="112" type="line"/>
      <point x="249" y="112" type="line"/>
      <point x="249" y="24" type="line"/>
    </contour>
  </outline>
</glyph>
<glyph name="sara-oriya" format="2">
  <advance width="504"/>
  <anchor x="230" y="658" name="top"/>
  <anchor x="439" y="658" name="topright"/>
  <outline>
    <contour>
      <point x="140" y="229" type="curve"/>
      <point x="140" y="229" type="line"/>
      <point x="158" y="246" type="line"/>
      <point x="88" y="291"/>
      <point x="54" y="366"/>
      <point x="54" y="438" type="curve"/>
      <point x="54" y="572"/>
      <point x="142" y="641"/>
      <point x="232" y="641" type="curve"/>
      <point x="330" y="641"/>
      <point x="430" y="562"/>
      <point x="430" y="398" type="curve"/>
      <point x="452" y="398" type="line"/>
      <point x="452" y="579"/>
      <point x="339" y="666"/>
      <point x="230" y="666" type="curve"/>
      <point x="127" y="666"/>
      <point x="28" y="589"/>
      <point x="28" y="440" type="curve"/>
      <point x="28" y="360"/>
      <point x="64" y="280"/>
    </contour>
    <contour>
      <point x="77" y="131" type="line"/>
      <point x="434" y="-4" type="line"/>
      <point x="426" y="10" type="line"/>
      <point x="426" y="-115" type="line"/>
      <point x="64" y="-115" type="line"/>
      <point x="64" y="-140" type="line"/>
      <point x="452" y="-140" type="line"/>
      <point x="452" y="658" type="line"/>
      <point x="426" y="658" type="line"/>
      <point x="426" y="495" type="line"/>
      <point x="426" y="480" type="line"/>
      <point x="426" y="19" type="line"/>
      <point x="444" y="19" type="line"/>
      <point x="89" y="153" type="line"/>
      <point x="94" y="139" type="line"/>
      <point x="283" y="383" type="line"/>
      <point x="264" y="400" type="line"/>
      <point x="72" y="152" type="line"/>
    </contour>
  </outline>
</glyph>
<glyph name="ssa-oriya.below" format="2">
  <note>
ssasubscriptorya
</note>
  <anchor x="196" y="110" name="_bottom"/>
  <anchor x="266" y="-244" name="bottom"/>
  <anchor x="292" y="-244" name="bottom_ra"/>
  <anchor x="205" y="-313" name="nukta"/>
  <outline>
    <contour>
      <point x="68" y="76" type="line"/>
      <point x="245" y="-199" type="line"/>
      <point x="262" y="-189" type="line"/>
      <point x="85" y="88" type="line"/>
    </contour>
    <contour>
      <point x="18" y="-18" type="curve"/>
      <point x="18" y="-18" type="line"/>
      <point x="18" y="-66"/>
      <point x="36" y="-109"/>
      <point x="76" y="-138" type="curve"/>
      <point x="83" y="-114" type="line"/>
      <point x="57" y="-89"/>
      <point x="43" y="-55"/>
      <point x="43" y="-21" type="curve"/>
      <point x="43" y="52"/>
      <point x="94" y="93"/>
      <point x="150" y="93" type="curve"/>
      <point x="209" y="93"/>
      <point x="269" y="50"/>
      <point x="269" y="-37" type="curve"/>
      <point x="291" y="-37" type="line"/>
      <point x="291" y="67"/>
      <point x="219" y="116"/>
      <point x="150" y="116" type="curve"/>
      <point x="82" y="116"/>
      <point x="18" y="68"/>
    </contour>
    <contour>
      <point x="292" y="-244" type="line"/>
      <point x="292" y="112" type="line"/>
      <point x="266" y="112" type="line"/>
      <point x="266" y="24" type="line"/>
      <point x="266" y="16" type="line"/>
      <point x="266" y="-174" type="line"/>
      <point x="266" y="-184" type="line"/>
      <point x="266" y="-244" type="line"/>
    </contour>
    <contour>
      <point x="175" y="-248" type="curve"/>
      <point x="175" y="-248" type="line"/>
      <point x="224" y="-248"/>
      <point x="262" y="-218"/>
      <point x="281" y="-169" type="curve"/>
      <point x="270" y="-146" type="line"/>
      <point x="254" y="-193"/>
      <point x="219" y="-225"/>
      <point x="176" y="-225" type="curve"/>
      <point x="125" y="-225"/>
      <point x="97" y="-186"/>
      <point x="97" y="-144" type="curve"/>
      <point x="97" y="-110"/>
      <point x="117" y="-74"/>
      <point x="157" y="-58" type="curve"/>
      <point x="148" y="-38" type="line"/>
      <point x="97" y="-57"/>
      <point x="72" y="-103"/>
      <point x="72" y="-147" type="curve"/>
      <point x="72" y="-199"/>
      <point x="107" y="-248"/>
    </contour>
  </outline>
</glyph>
<glyph name="ssaka-oriya" format="2">
  <advance width="574"/>
  <note>
ssakaorya
</note>
  <guideline x="482" y="177" angle="90"/>
  <guideline x="542" y="173" angle="90"/>
  <anchor x="516" y="-164" name="bottom"/>
  <anchor x="542" y="-164" name="bottom_ra"/>
  <anchor x="407" y="-253" name="nukta"/>
  <anchor x="253" y="658" name="top"/>
  <anchor x="469" y="658" name="topright"/>
  <outline>
    <contour>
      <point x="137" y="193" type="curve"/>
      <point x="137" y="193" type="line"/>
      <point x="142" y="222" type="line"/>
      <point x="82" y="270"/>
      <point x="54" y="340"/>
      <point x="54" y="417" type="curve"/>
      <point x="54" y="561"/>
      <point x="151" y="641"/>
      <point x="254" y="641" type="curve"/>
      <point x="354" y="641"/>
      <point x="460" y="567"/>
      <point x="460" y="398" type="curve"/>
      <point x="482" y="398" type="line"/>
      <point x="482" y="583"/>
      <point x="366" y="666"/>
      <point x="253" y="666" type="curve"/>
      <point x="141" y="666"/>
      <point x="28" y="577"/>
      <point x="28" y="418" type="curve"/>
      <point x="28" y="330"/>
      <point x="63" y="247"/>
    </contour>
    <contour>
      <point x="285" y="-8" type="curve"/>
      <point x="285" y="-8" type="line"/>
      <point x="286" y="17" type="line"/>
      <point x="285" y="17"/>
      <point x="284" y="17"/>
      <point x="283" y="17" type="curve"/>
      <point x="213" y="17"/>
      <point x="149" y="84"/>
      <point x="149" y="180" type="curve"/>
      <point x="149" y="264"/>
      <point x="196" y="330"/>
      <point x="262" y="358" type="curve"/>
      <point x="253" y="381" type="line"/>
      <point x="174" y="349"/>
      <point x="123" y="273"/>
      <point x="123" y="182" type="curve"/>
      <point x="123" y="72"/>
      <point x="196" y="-6"/>
      <point x="280" y="-8" type="curve"/>
      <point x="282" y="-8"/>
      <point x="280" y="-8"/>
    </contour>
    <contour>
      <point x="456" y="480" type="line"/>
      <point x="456" y="102" type="line"/>
      <point x="482" y="102" type="line"/>
      <point x="482" y="658" type="line"/>
      <point x="456" y="658" type="line"/>
      <point x="456" y="495" type="line"/>
    </contour>
    <contour>
      <point x="119" y="592" type="line"/>
      <point x="425" y="74" type="line"/>
      <point x="442" y="93" type="line"/>
      <point x="134" y="615" type="line"/>
    </contour>
    <contour>
      <point x="342" y="-96" type="curve"/>
      <point x="342" y="-96" type="line"/>
      <point x="389" y="-96"/>
      <point x="420" y="-52"/>
      <point x="420" y="10" type="curve"/>
      <point x="420" y="75"/>
      <point x="389" y="116"/>
      <point x="342" y="116" type="curve"/>
      <point x="295" y="116"/>
      <point x="264" y="75"/>
      <point x="264" y="9" type="curve"/>
      <point x="264" y="-53"/>
      <point x="295" y="-96"/>
    </contour>
    <contour>
      <point x="342" y="-73" type="curve"/>
      <point x="342" y="-73" type="line"/>
      <point x="311" y="-73"/>
      <point x="289" y="-41"/>
      <point x="289" y="9" type="curve"/>
      <point x="289" y="60"/>
      <point x="311" y="93"/>
      <point x="342" y="93" type="curve"/>
      <point x="373" y="93"/>
      <point x="395" y="60"/>
      <point x="395" y="9" type="curve"/>
      <point x="395" y="-41"/>
      <point x="373" y="-73"/>
    </contour>
    <contour>
      <point x="395" y="-14" type="line"/>
      <point x="395" y="-164" type="line"/>
      <point x="421" y="-164" type="line"/>
      <point x="421" y="27" type="line" smooth="yes"/>
      <point x="421" y="69"/>
      <point x="439" y="93"/>
      <point x="469" y="93" type="curve"/>
      <point x="500" y="93"/>
      <point x="516" y="69"/>
      <point x="516" y="27" type="curve"/>
      <point x="516" y="-164" type="line"/>
      <point x="542" y="-164" type="line"/>
      <point x="542" y="27" type="line" smooth="yes"/>
      <point x="542" y="84"/>
      <point x="514" y="116"/>
      <point x="469" y="116" type="curve"/>
      <point x="425" y="116"/>
      <point x="397" y="84"/>
      <point x="397" y="27" type="curve"/>
    </contour>
  </outline>
</glyph>
<glyph name="ta-oriya.below" format="2">
  <note>
tasubscriptorya
</note>
  <guideline x="292" y="158" angle="90"/>
  <anchor x="317" y="110" name="_bottom"/>
  <anchor x="206" y="-113" name="bottom"/>
  <anchor x="228" y="-113" name="bottom_ra"/>
  <anchor x="222" y="-193" name="nukta"/>
  <outline>
    <contour>
      <point x="292" y="-86" type="curve"/>
      <point x="292" y="-86" type="line"/>
      <point x="285" y="-82" type="line"/>
      <point x="268" y="-87"/>
      <point x="247" y="-90"/>
      <point x="220" y="-90" type="curve"/>
      <point x="146" y="-90"/>
      <point x="90" y="-57"/>
      <point x="39" y="6" type="curve"/>
      <point x="18" y="-10" type="line"/>
      <point x="74" y="-81"/>
      <point x="141" y="-113"/>
      <point x="218" y="-113" type="curve"/>
      <point x="321" y="-113"/>
      <point x="366" y="-62"/>
      <point x="366" y="16" type="curve"/>
      <point x="366" y="76"/>
      <point x="341" y="116"/>
      <point x="292" y="116" type="curve"/>
      <point x="241" y="116"/>
      <point x="214" y="76"/>
      <point x="214" y="16" type="curve"/>
      <point x="214" y="-45"/>
      <point x="242" y="-86"/>
    </contour>
    <contour>
      <point x="292" y="-63" type="curve"/>
      <point x="292" y="-63" type="line"/>
      <point x="258" y="-63"/>
      <point x="239" y="-32"/>
      <point x="239" y="16" type="curve"/>
      <point x="239" y="61"/>
      <point x="256" y="93"/>
      <point x="290" y="93" type="curve"/>
      <point x="325" y="93"/>
      <point x="341" y="60"/>
      <point x="341" y="14" type="curve"/>
      <point x="341" y="-32"/>
      <point x="326" y="-63"/>
    </contour>
  </outline>
</glyph>
<glyph name="taalt-oriya.below" format="2">
  <anchor x="111" y="0" name="_bottom"/>
  <anchor x="138" y="10" name="_bottom_ta"/>
  <anchor x="105" y="-142" name="bottom"/>
  <anchor x="138" y="-153" name="bottom_ra"/>
  <anchor x="51" y="-214" name="nukta"/>
  <outline>
    <contour>
      <point x="35" y="-109" type="line"/>
      <point x="205" y="-197" type="line"/>
      <point x="214" y="-178" type="line"/>
      <point x="38" y="-86" type="line"/>
      <point x="44" y="-103" type="line"/>
      <point x="138" y="0" type="line"/>
      <point x="124" y="17" type="line"/>
      <point x="29" y="-89" type="line"/>
    </contour>
  </outline>
</glyph>
<glyph name="tasa-oriya" format="2">
  <advance width="504"/>
  <note>
tasaorya
</note>
  <guideline x="452" y="-29" angle="90"/>
  <guideline x="63" y="181" angle="107"/>
  <anchor x="240" y="-185" name="nukta"/>
  <anchor x="230" y="658" name="top"/>
  <anchor x="439" y="658" name="topright"/>
  <outline>
    <contour>
      <point x="136" y="-59" type="line"/>
      <point x="443" y="-175" type="line"/>
      <point x="452" y="-152" type="line"/>
      <point x="147" y="-37" type="line"/>
      <point x="150" y="-55" type="line"/>
      <point x="253" y="78" type="line"/>
      <point x="233" y="93" type="line"/>
      <point x="131" y="-38" type="line"/>
    </contour>
    <contour>
      <point x="140" y="229" type="curve"/>
      <point x="140" y="229" type="line"/>
      <point x="158" y="246" type="line"/>
      <point x="88" y="291"/>
      <point x="54" y="366"/>
      <point x="54" y="438" type="curve"/>
      <point x="54" y="572"/>
      <point x="142" y="641"/>
      <point x="232" y="641" type="curve"/>
      <point x="330" y="641"/>
      <point x="430" y="562"/>
      <point x="430" y="398" type="curve"/>
      <point x="452" y="398" type="line"/>
      <point x="452" y="579"/>
      <point x="339" y="666"/>
      <point x="230" y="666" type="curve"/>
      <point x="127" y="666"/>
      <point x="28" y="589"/>
      <point x="28" y="440" type="curve"/>
      <point x="28" y="360"/>
      <point x="64" y="280"/>
    </contour>
    <contour>
      <point x="426" y="480" type="line"/>
      <point x="426" y="9" type="line"/>
      <point x="438" y="21" type="line"/>
      <point x="89" y="153" type="line"/>
      <point x="94" y="139" type="line"/>
      <point x="283" y="383" type="line"/>
      <point x="264" y="400" type="line"/>
      <point x="72" y="152" type="line"/>
      <point x="77" y="131" type="line"/>
      <point x="434" y="-4" type="line"/>
      <point x="452" y="-4" type="line"/>
      <point x="452" y="658" type="line"/>
      <point x="426" y="658" type="line"/>
      <point x="426" y="495" type="line"/>
    </contour>
  </outline>
</glyph>
<glyph name="tta-oriya.below" format="2">
  <note>
ttasubscriptorya
</note>
  <guideline x="141" y="144" angle="90"/>
  <anchor x="167" y="110" name="_bottom"/>
  <anchor x="126" y="-246" name="bottom"/>
  <anchor x="148" y="-246" name="bottom_ra"/>
  <anchor x="140" y="-318" name="nukta"/>
  <outline>
    <contour>
      <point x="63" y="-128" type="curve"/>
      <point x="63" y="-128" type="line"/>
      <point x="75" y="-107" type="line"/>
      <point x="54" y="-83"/>
      <point x="43" y="-52"/>
      <point x="43" y="-21" type="curve"/>
      <point x="43" y="47"/>
      <point x="81" y="93"/>
      <point x="138" y="93" type="curve"/>
      <point x="200" y="93"/>
      <point x="241" y="40"/>
      <point x="241" y="-39" type="curve"/>
      <point x="262" y="-29" type="line"/>
      <point x="262" y="58"/>
      <point x="212" y="116"/>
      <point x="137" y="116" type="curve"/>
      <point x="66" y="116"/>
      <point x="18" y="62"/>
      <point x="18" y="-18" type="curve"/>
      <point x="18" y="-60"/>
      <point x="32" y="-99"/>
    </contour>
    <contour>
      <point x="237" y="36" type="line"/>
      <point x="237" y="-66" type="line"/>
      <point x="263" y="-66" type="line"/>
      <point x="263" y="112" type="line"/>
      <point x="237" y="112" type="line"/>
      <point x="237" y="44" type="line"/>
    </contour>
    <contour>
      <point x="138" y="-248" type="curve"/>
      <point x="138" y="-248" type="line"/>
      <point x="185" y="-248"/>
      <point x="217" y="-210"/>
      <point x="217" y="-152" type="curve"/>
      <point x="217" y="-94"/>
      <point x="185" y="-56"/>
      <point x="138" y="-56" type="curve"/>
      <point x="90" y="-56"/>
      <point x="59" y="-94"/>
      <point x="59" y="-152" type="curve"/>
      <point x="59" y="-209"/>
      <point x="89" y="-248"/>
    </contour>
    <contour>
      <point x="138" y="-225" type="curve"/>
      <point x="138" y="-225" type="line"/>
      <point x="105" y="-225"/>
      <point x="84" y="-195"/>
      <point x="84" y="-151" type="curve"/>
      <point x="84" y="-108"/>
      <point x="105" y="-79"/>
      <point x="138" y="-79" type="curve"/>
      <point x="171" y="-79"/>
      <point x="192" y="-109"/>
      <point x="192" y="-152" type="curve"/>
      <point x="192" y="-195"/>
      <point x="171" y="-225"/>
    </contour>
  </outline>
</glyph>
<glyph name="ttha-oriya.below" format="2">
  <note>
tthasubscriptorya
</note>
  <guideline x="147" y="158" angle="90"/>
  <anchor x="182" y="110" name="_bottom"/>
  <outline>
    <contour>
      <point x="147" y="-208" type="curve"/>
      <point x="147" y="-208" type="line"/>
      <point x="224" y="-208"/>
      <point x="275" y="-144"/>
      <point x="275" y="-47" type="curve"/>
      <point x="275" y="51"/>
      <point x="224" y="116"/>
      <point x="147" y="116" type="curve"/>
      <point x="69" y="116"/>
      <point x="18" y="51"/>
      <point x="18" y="-47" type="curve"/>
      <point x="18" y="-144"/>
      <point x="69" y="-208"/>
    </contour>
    <contour>
      <point x="147" y="-185" type="curve"/>
      <point x="147" y="-185" type="line"/>
      <point x="84" y="-185"/>
      <point x="43" y="-129"/>
      <point x="43" y="-46" type="curve"/>
      <point x="43" y="37"/>
      <point x="84" y="93"/>
      <point x="147" y="93" type="curve"/>
      <point x="209" y="93"/>
      <point x="250" y="37"/>
      <point x="250" y="-46" type="curve"/>
      <point x="250" y="-129"/>
      <point x="209" y="-185"/>
    </contour>
  </outline>
</glyph>
<glyph name="va-oriya.base.kui" format="2">
  <advance width="471"/>
  <anchor x="320" y="110" name="bottom"/>
  <anchor x="234" y="658" name="top"/>
  <anchor x="398" y="658" name="topright"/>
  <outline>
    <component base="ba-oriya.base"/>
    <contour>
      <point x="234" y="487" type="curve"/>
      <point x="234" y="487" type="line"/>
      <point x="251" y="487"/>
      <point x="264" y="504"/>
      <point x="264" y="526" type="curve"/>
      <point x="264" y="548"/>
      <point x="251" y="565"/>
      <point x="234" y="565" type="curve"/>
      <point x="217" y="565"/>
      <point x="204" y="550"/>
      <point x="204" y="527" type="curve"/>
      <point x="204" y="504"/>
      <point x="217" y="487"/>
    </contour>
  </outline>
</glyph>
<glyph name="va-oriya.below" format="2">
  <guideline x="114" y="206" angle="90"/>
  <anchor x="129" y="110" name="_bottom"/>
  <outline>
    <contour>
      <point x="18" y="15" type="curve"/>
      <point x="18" y="15" type="line"/>
      <point x="18" y="-41"/>
      <point x="51" y="-88"/>
      <point x="113" y="-88" type="curve"/>
      <point x="147" y="-88"/>
      <point x="178" y="-74"/>
      <point x="199" y="-48" type="curve"/>
      <point x="196" y="-18" type="line"/>
      <point x="178" y="-47"/>
      <point x="147" y="-64"/>
      <point x="115" y="-64" type="curve"/>
      <point x="69" y="-64"/>
      <point x="44" y="-28"/>
      <point x="44" y="18" type="curve"/>
      <point x="44" y="44"/>
      <point x="52" y="73"/>
      <point x="68" y="102" type="curve"/>
      <point x="46" y="113" type="line"/>
      <point x="29" y="84"/>
      <point x="18" y="46"/>
    </contour>
    <contour>
      <point x="184" y="-58" type="line"/>
      <point x="184" y="-164" type="line"/>
      <point x="210" y="-164" type="line"/>
      <point x="210" y="112" type="line"/>
      <point x="184" y="112" type="line"/>
      <point x="184" y="-49" type="line"/>
    </contour>
  </outline>
</glyph>
<glyph name="vara-oriya.kui" format="2">
  <advance width="507"/>
  <anchor x="252" y="658" name="top"/>
  <anchor x="434" y="658" name="topright"/>
  <outline>
    <component base="bara-oriya"/>
    <contour>
      <point x="252" y="467" type="curve"/>
      <point x="252" y="467" type="line"/>
      <point x="269" y="467"/>
      <point x="282" y="484"/>
      <point x="282" y="506" type="curve"/>
      <point x="282" y="528"/>
      <point x="269" y="545"/>
      <point x="252" y="545" type="curve"/>
      <point x="235" y="545"/>
      <point x="222" y="530"/>
      <point x="222" y="507" type="curve"/>
      <point x="222" y="484"/>
      <point x="235" y="467"/>
    </contour>
  </outline>
</glyph>
<glyph name="yya-oriya.post" format="2">
  <advance width="304"/>
  <note>
yapostorya
</note>
  <anchor x="140" y="-150" name="nukta"/>
  <outline>
    <contour>
      <point x="226" y="366" type="line"/>
      <point x="226" y="0" type="line"/>
      <point x="252" y="0" type="line"/>
      <point x="252" y="657" type="line"/>
      <point x="226" y="657" type="line"/>
      <point x="226" y="374" type="line"/>
      <point x="236" y="389" type="line"/>
      <point x="207" y="374"/>
      <point x="178" y="365"/>
      <point x="153" y="365" type="curve"/>
      <point x="95" y="365"/>
      <point x="54" y="403"/>
      <point x="54" y="510" type="curve"/>
      <point x="54" y="554"/>
      <point x="60" y="605"/>
      <point x="68" y="656" type="curve"/>
      <point x="43" y="660" type="line"/>
      <point x="34" y="609"/>
      <point x="28" y="558"/>
      <point x="28" y="513" type="curve"/>
      <point x="28" y="386"/>
      <point x="80" y="340"/>
      <point x="150" y="340" type="curve"/>
      <point x="177" y="340"/>
      <point x="206" y="347"/>
      <point x="236" y="362" type="curve"/>
    </contour>
  </outline>
</glyph>
